<?xml version="1.0" standalone="no"?>
<!DOCTYPE svg PUBLIC "-//W3C//DTD SVG 20010904//EN"
 "http://www.w3.org/TR/2001/REC-SVG-20010904/DTD/svg10.dtd">
<svg version="1.0" xmlns="http://www.w3.org/2000/svg"
 width="30.000000pt" height="30.000000pt" viewBox="0 0 30.000000 30.000000"
 preserveAspectRatio="xMidYMid meet">

<g transform="translate(0.000000,30.000000) scale(0.100000,-0.100000)"
fill="#000000" stroke="none">
<path d="M63 246 c-24 -21 -28 -32 -28 -75 0 -35 5 -56 18 -68 16 -16 17 -16
17 3 0 10 9 36 20 57 12 22 18 47 15 58 -7 22 10 26 18 5 6 -15 47 -11 47 5 0
12 -42 39 -62 39 -9 0 -30 -11 -45 -24z"/>
<path d="M148 194 c-31 -16 -58 -61 -58 -97 0 -29 39 -67 69 -67 83 0 143 107
88 158 -27 25 -60 27 -99 6z m82 -36 c0 -16 -30 -48 -46 -48 -7 0 -20 -10 -28
-22 -9 -12 -19 -18 -23 -14 -11 11 10 39 41 54 15 8 30 20 33 28 6 17 23 19
23 2z"/>
</g>
</svg>
