<?xml version="1.0" standalone="no"?>
<!DOCTYPE svg PUBLIC "-//W3C//DTD SVG 20010904//EN"
 "http://www.w3.org/TR/2001/REC-SVG-20010904/DTD/svg10.dtd">
<svg version="1.0" xmlns="http://www.w3.org/2000/svg"
 width="50.000000pt" height="50.000000pt" viewBox="0 0 50.000000 50.000000"
 preserveAspectRatio="xMidYMid meet">

<g transform="translate(0.000000,50.000000) scale(0.100000,-0.100000)"
fill="#000000" stroke="none">
<path d="M64 373 c4 -32 16 -96 29 -143 l22 -85 105 -3 c81 -2 107 0 115 11 6
8 34 25 63 37 57 25 82 51 82 87 0 35 -36 66 -70 61 l-29 -4 6 48 6 48 -168 0
-168 0 7 -57z m389 -75 c17 -27 -8 -67 -55 -88 -24 -10 -44 -17 -46 -16 -8 8
22 102 37 114 20 16 51 12 64 -10z"/>
<path d="M22 108 c3 -7 19 -23 38 -35 30 -21 45 -23 165 -23 120 0 135 2 165
23 67 44 57 47 -165 47 -161 0 -206 -3 -203 -12z"/>
</g>
</svg>
