<svg xmlns="http://www.w3.org/2000/svg" viewBox="0 0 75.43 55.39"><defs><style>.cls-1{fill:#fff;}.cls-2{fill:#231f20;}</style></defs><g id="Layer_2" data-name="Layer 2"><g id="Layer_1-2" data-name="Layer 1"><path class="cls-1" d="M17.28,51.86h0l-.83.26-.11,0-.76.17-.36,0-.58.08c-.33,0-.66,0-1,0A10.75,10.75,0,0,1,2.89,41.75c0-.42,0-.83.07-1.24,0-.11,0-.21,0-.32.05-.3.1-.6.17-.9,0-.1,0-.2.08-.3.08-.32.18-.62.29-.93,0-.06.05-.13.07-.2a11.57,11.57,0,0,1,.48-1.07h0a10.74,10.74,0,0,1,16.84-2.92h0c.23.22.46.45.67.68l0,0a8.79,8.79,0,0,1,.6.74h0c.19.26.37.52.54.8h0c.17.28.33.56.48.85h0a10.74,10.74,0,0,1-6,14.88Z"/><path class="cls-2" d="M4.33,9.33A5.24,5.24,0,0,0,8,15.83a13.16,13.16,0,0,0,2.67,0v8.42A4.88,4.88,0,0,0,10.79,26c.18.43.75.7,1.15,1.05a4.54,4.54,0,0,0,.84-1.17,5.68,5.68,0,0,0,0-1.6V18.9A21.24,21.24,0,0,0,15,20.38c2.63,1.28,6.15-.5,6.29-3.35.09-1.76.46-3.12,2.18-3.84-2.56-3.25-6.85-2.88-10.68,1,0-.86,0-1.42,0-2-.18-3.76-2.35-6.73-5.67-7.65-1.47-.41-2.95-.48-4.2.87C4.56,6.4,4.7,7.73,4.33,9.33Z"/><path class="cls-2" d="M23.83,5.11a5.3,5.3,0,0,0-.12,2c.51,3.26,2.56,4.66,6.52,4.48,0,1.43,0,2.85,0,4.28,0,1.92,0,3.85.09,5.76,0,.38.59.72.91,1.08.39-.34.94-.62,1.11-1.05a5,5,0,0,0,.08-1.73c0-1.71,0-3.41,0-5.16a19.12,19.12,0,0,0,2.49,1.46c2.39,1,5.7-.83,5.83-3.25.09-1.81.44-3.33,2.25-4.12C40.42,5.67,36.48,6,32.5,9.57c-.13-1-.21-1.91-.35-2.79A7.61,7.61,0,0,0,25.52,0a3.25,3.25,0,0,0-3.06,1.09C24.08,2.09,24.23,3.49,23.83,5.11Z"/><path class="cls-2" d="M45.32,6.08a5,5,0,0,0,5.46,6.18c.29,0,.6,0,1,0v1.36c0,2.78,0,5.55,0,8.33,0,.8.21,1.58,1.1,1.43.41-.07,1-.92,1-1.44.11-2.16,0-4.34,0-6.63a20.35,20.35,0,0,0,2.13,1.43c2.5,1.23,6.13-.51,6.22-3.09.07-1.85.48-3.33,2.3-4.1-2.73-3.2-6.83-2.87-10.53.77-.14-1.11-.21-2.08-.39-3C53,4,51.17,1.69,47.81.84a3.5,3.5,0,0,0-3.83,1C45.87,2.86,45.66,4.4,45.32,6.08Z"/><path class="cls-2" d="M19.56,39.72H16.37V36.53a2,2,0,0,0-.07-.5s0,0,0-.06a2.39,2.39,0,0,0-.18-.44,2,2,0,0,0-1.77-1.05H13.05a2.05,2.05,0,0,0-2,2.05v3.19H7.81a2,2,0,0,0-2,2V43a2,2,0,0,0,2,2H11v3.19a2,2,0,0,0,2,2h1.28a2,2,0,0,0,2-2V45.08h3.19a2,2,0,0,0,2-2V41.76A2,2,0,0,0,19.56,39.72Z"/><path class="cls-2" d="M54.4,25.5c-6-.12-12.09,0-18.13.11a123.2,123.2,0,0,0-20.81,2c-.91.18-1.81.37-2.71.58a13.63,13.63,0,1,0,14.1,16.94c1-.71,1.92-1.42,2.9-2.1,7.18-5,14.78-9.24,23.31-11.55,1.07-.29,2.16-.5,3.24-.74a1.08,1.08,0,0,1-.61.63c-5.42,3.12-10.93,6.11-16.23,9.42A28.24,28.24,0,0,0,30.4,49.4c-1.26,2-.61,3.29,1.74,3.4s4.65,0,7,0a5.54,5.54,0,0,0,4.67-2.46,18.35,18.35,0,0,0,1.27-1.89A50.2,50.2,0,0,1,56.42,35.18,15.58,15.58,0,0,1,63,31.44c-1.29,1.42-2.63,2.8-3.88,4.25-3.7,4.32-6.81,9-8.23,14.59-.38,1.51,0,2.47,1.42,2.5,2.5.06,5-.07,7.5-.19,1.26-.06,1.84-.84,2-2.08a69.93,69.93,0,0,1,1.28-7.66c1.82-7.11,4.49-13.66,12.32-16.37C68.41,26.06,61.41,25.65,54.4,25.5ZM17.28,51.86h0l-.83.26-.11,0-.76.17-.36,0-.58.08c-.33,0-.66,0-1,0A10.75,10.75,0,0,1,2.89,41.75c0-.42,0-.83.07-1.24,0-.11,0-.21,0-.32.05-.3.1-.6.17-.9,0-.1,0-.2.08-.3.08-.32.18-.62.29-.93,0-.06.05-.13.07-.2a11.57,11.57,0,0,1,.48-1.07h0a10.74,10.74,0,0,1,16.84-2.92h0c.23.22.46.45.67.68l0,0a8.79,8.79,0,0,1,.6.74h0c.19.26.37.52.54.8h0c.17.28.33.56.48.85h0a10.74,10.74,0,0,1-6,14.88ZM49,29.44A140,140,0,0,0,26,35.9a13.81,13.81,0,0,0-1.91-3A106.49,106.49,0,0,1,50.29,29,7.75,7.75,0,0,1,49,29.44Z"/></g></g></svg>