<svg xmlns="http://www.w3.org/2000/svg" viewBox="0 0 69.06 65.79"><defs><style>.cls-1{fill:#fff;}.cls-2{fill:#231f20;}</style></defs><g id="Layer_2" data-name="Layer 2"><g id="Layer_1-2" data-name="Layer 1"><path class="cls-1" d="M13.64,62.9A10.75,10.75,0,0,1,2.89,52.15c0-.33,0-.66,0-1a2.4,2.4,0,0,1,0-.28c0-.25.06-.49.11-.73,0-.08,0-.17,0-.26.07-.3.14-.59.23-.88l.09-.27c.07-.2.14-.4.22-.6l.15-.35.24-.51.3-.54c.09-.16.18-.31.28-.46s.2-.29.3-.43l.19-.26c.12-.15.24-.31.37-.45l0,0a11.8,11.8,0,0,1,1-1l0,0c.18-.16.37-.32.56-.46l0,0a10.64,10.64,0,0,1,6.5-2.2,12.09,12.09,0,0,1,1.21.07h.06a8.62,8.62,0,0,1,1.13.2h0a10.75,10.75,0,0,1-2.4,21.22Z"/><path class="cls-2" d="M69,20.42V5.75a.66.66,0,0,0-1.31,0V20.42C67.64,22.27,67,22.8,66.58,23H59.64V5.75a.66.66,0,0,0-1.32,0V23H50.9c-.85,0-.93-1.45-.9-2.3a.6.6,0,0,0,0-.24V5.75a.66.66,0,0,0-1.32,0V20.42s0,.06,0,.09c.21,3.82,2.15,3.76,2.15,3.76h7.42v9.67L36.82,25a3,3,0,0,0-1-.21,43.85,43.85,0,0,0-18.77.57c-4.44,1.17-6.6,7.19-7.62,13.77A13.63,13.63,0,1,0,21.87,63H40.75L36.84,31.74l21.48,8.89V63h1.32V41.18l.19.07a3.08,3.08,0,0,0,2.36-5.7l-2.55-1.06V24.27h6.7v.07C69.48,24.34,69,20.42,69,20.42Zm-52,11.44-.73,6.92A13.62,13.62,0,0,0,14,38.53C14.59,35.4,15.53,32.86,17.08,31.86Zm-3.44,31A10.75,10.75,0,0,1,2.89,52.15c0-.33,0-.66,0-1a2.4,2.4,0,0,1,0-.28c0-.25.06-.49.11-.73,0-.08,0-.17,0-.26.07-.3.14-.59.23-.88l.09-.27c.07-.2.14-.4.22-.6l.15-.35.24-.51.3-.54c.09-.16.18-.31.28-.46s.2-.29.3-.43l.19-.26c.12-.15.24-.31.37-.45l0,0a11.8,11.8,0,0,1,1-1l0,0c.18-.16.37-.32.56-.46l0,0a10.64,10.64,0,0,1,6.5-2.2,12.09,12.09,0,0,1,1.21.07h.06a8.62,8.62,0,0,1,1.13.2h0a10.75,10.75,0,0,1-2.4,21.22Z"/><path class="cls-2" d="M19.56,50.12H16.37V46.93a2.07,2.07,0,0,0-.72-1.55l-.28-.2h0a1.64,1.64,0,0,0-.3-.14L15,45l-.24-.07a2.45,2.45,0,0,0-.38,0H13.05a2.05,2.05,0,0,0-2,2v3.19H7.81a2,2,0,0,0-2,2v1.28a2,2,0,0,0,2,2H11v3.19a2,2,0,0,0,1.22,1.87,2.23,2.23,0,0,0,.39.13h0a1.87,1.87,0,0,0,.42,0h1.28a2,2,0,0,0,2-2V55.48h3.19a2,2,0,0,0,2-2V52.16A2,2,0,0,0,19.56,50.12Z"/><path class="cls-2" d="M10.88,9h7c0,.41-.07.84-.07,1.27,0,5.66,3.86,10.25,8.62,10.25s8.63-4.59,8.63-10.25A10.56,10.56,0,0,0,35,9h8a1,1,0,0,0,1-1v-.4a1,1,0,0,0-1-1H34.5C33.26,2.74,30.13,0,26.45,0s-6.8,2.74-8,6.59H10.88a1,1,0,0,0-1,1V8A1,1,0,0,0,10.88,9Z"/></g></g></svg>