<svg xmlns="http://www.w3.org/2000/svg" viewBox="0 0 69.18 65.08"><defs><style>.cls-1{fill:#fff;}.cls-2{fill:#231f20;}</style></defs><g id="Layer_2" data-name="Layer 2"><g id="Layer_1-2" data-name="Layer 1"><path class="cls-1" d="M22.24,45l.19.26c.1.14.19.29.29.44l.22.36c.08.14.16.28.23.42a4.59,4.59,0,0,1,.24.5l.16.33c.11.28.22.57.31.86l.09.3c.06.21.11.43.16.64s.05.23.07.35.08.44.1.67,0,.21,0,.31c0,.33.05.66.05,1s0,.67-.05,1c0,.1,0,.21,0,.31s-.06.45-.1.67,0,.23-.07.35-.1.43-.16.64l-.09.3c-.09.29-.2.58-.31.86l-.16.33a4.59,4.59,0,0,1-.24.5c-.07.14-.15.28-.23.42l-.22.36c-.1.15-.19.3-.29.44l-.19.26a11.61,11.61,0,0,1-1.42,1.55l-.09.08c-.19.16-.38.32-.58.47l-.06.05a10.76,10.76,0,0,1-5.45,2.11c-.33,0-.66,0-1,0s-.67,0-1,0a10.71,10.71,0,0,1-7.17-3.72h0c-.17-.2-.33-.41-.49-.62l-.11-.15-.39-.59c-.05-.08-.1-.16-.14-.24s-.21-.38-.31-.57l-.15-.32c-.09-.18-.17-.37-.24-.55L3.49,55c-.06-.17-.12-.34-.17-.51L3.2,54c0-.15-.08-.31-.11-.47S3,53.07,3,52.86s0-.25-.05-.38c0-.34,0-.69,0-1s0-.7,0-1c0-.13,0-.26.05-.38s.06-.43.1-.63.07-.32.11-.47l.12-.5c.05-.17.11-.34.17-.52l.15-.4c.07-.18.15-.37.24-.55L4,46.63c.1-.19.2-.38.31-.57s.09-.16.14-.24l.39-.59L5,45.08c.16-.21.32-.42.49-.62h0a10.73,10.73,0,0,1,14.62-1.61l.06,0c.2.15.39.31.58.47l.09.08A11.61,11.61,0,0,1,22.24,45Z"/><path class="cls-2" d="M19.56,54.77a2,2,0,0,0,2-2V51.45a2,2,0,0,0-2-2H16.37V46.22a2.05,2.05,0,0,0-2-2H13.05a2.05,2.05,0,0,0-2,2v3.19H7.81a2,2,0,0,0-2,2v1.28a2,2,0,0,0,2,2H11V58a2,2,0,0,0,2,2h1.28a2,2,0,0,0,2-2V54.77h3.19Z"/><path class="cls-2" d="M55.52,10.81,35.91,0,17.18,10.12,2.62,31H5.47v9.53A13.64,13.64,0,1,0,17.26,38.3V33.71h37.3V62H66.35V32.47h2.83ZM22.24,45l.19.26c.1.14.19.29.29.44l.22.36c.08.14.16.28.23.42a4.59,4.59,0,0,1,.24.5l.16.33c.11.28.22.57.31.86l.09.3c.06.21.11.43.16.64s.05.23.07.35.08.44.1.67,0,.21,0,.31c0,.33.05.66.05,1s0,.67-.05,1c0,.1,0,.21,0,.31s-.06.45-.1.67,0,.23-.07.35-.1.43-.16.64l-.09.3c-.09.29-.2.58-.31.86l-.16.33a4.59,4.59,0,0,1-.24.5c-.07.14-.15.28-.23.42l-.22.36c-.1.15-.19.3-.29.44l-.19.26a11.61,11.61,0,0,1-1.42,1.55l-.09.08c-.19.16-.38.32-.58.47l-.06.05a10.76,10.76,0,0,1-5.45,2.11c-.33,0-.66,0-1,0s-.67,0-1,0a10.71,10.71,0,0,1-7.17-3.72h0c-.17-.2-.33-.41-.49-.62l-.11-.15-.39-.59c-.05-.08-.1-.16-.14-.24s-.21-.38-.31-.57l-.15-.32c-.09-.18-.17-.37-.24-.55L3.49,55c-.06-.17-.12-.34-.17-.51L3.2,54c0-.15-.08-.31-.11-.47S3,53.07,3,52.86s0-.25-.05-.38c0-.34,0-.69,0-1s0-.7,0-1c0-.13,0-.26.05-.38s.06-.43.1-.63.07-.32.11-.47l.12-.5c.05-.17.11-.34.17-.52l.15-.4c.07-.18.15-.37.24-.55L4,46.63c.1-.19.2-.38.31-.57s.09-.16.14-.24l.39-.59L5,45.08c.16-.21.32-.42.49-.62h0a10.73,10.73,0,0,1,14.62-1.61l.06,0c.2.15.39.31.58.47l.09.08A11.61,11.61,0,0,1,22.24,45ZM41,28.75H30.85V14.25H41Z"/></g></g></svg>