<svg xmlns="http://www.w3.org/2000/svg" viewBox="0 0 570.28 570.28"><defs><style>.cls-1{fill:none;}.cls-2{fill:#c12026;}.cls-3{fill:#f15a22;}.cls-4{fill:#2a3693;}.cls-5{fill:#006635;}.cls-6{fill:#ec6a69;}.cls-7{fill:#e4272a;}.cls-8{fill:#45b649;}.cls-9{fill:#73bf44;}.cls-10{fill:#96469a;}.cls-11{fill:#524099;}.cls-12{fill:#f7921e;}.cls-13{fill:#fdc010;}.cls-14{fill:#bad532;}.cls-15{fill:#9dcb3b;}.cls-16{fill:#fdec09;}.cls-17{fill:#dae021;}.cls-18{fill:#f6871f;}.cls-19{fill:#f47920;}.cls-20{fill:#fedf00;}.cls-21{fill:#fcb216;}.cls-22{fill:#f06060;}.cls-23{fill:#e44f4e;}.cls-24{fill:#ee3424;}.cls-25{fill:#ef4223;}.cls-26{fill:#d22a8d;}.cls-27{fill:#b54599;}.cls-28{fill:#713e98;}.cls-29{fill:#fff;}.cls-30{fill:#dddccb;}.cls-31{fill:#414042;}.cls-32{fill:#231f20;}</style></defs><g id="Layer_2" data-name="Layer 2"><g id="Layer_1-2" data-name="Layer 1"><circle class="cls-1" cx="285.14" cy="285.14" r="92.95" transform="translate(-118.11 285.14) rotate(-45)"/><path class="cls-2" d="M285.14,378.09a92.94,92.94,0,0,1-92.94-92.95h-52c0,79.93,65,145,144.94,145h0v-52Z"/><path class="cls-3" d="M140.2,285.14h52a92.94,92.94,0,0,1,92.94-92.94h0v-52h0C205.22,140.2,140.2,205.22,140.2,285.14Z"/><path class="cls-4" d="M378.09,285.14h0a93,93,0,0,1-92.95,92.95v52c79.93,0,145-65,145-144.95Z"/><path class="cls-5" d="M285.14,192.2a92.94,92.94,0,0,1,92.95,92.94h52c0-79.92-65-144.94-144.95-144.94v52Z"/><path class="cls-6" d="M285.14,430.09a144.49,144.49,0,0,1-102.31-42.38h0l-41.65,41.76a203.33,203.33,0,0,0,144,59.62h0v-59Z"/><path class="cls-7" d="M140.2,285.14h-59a203.36,203.36,0,0,0,60,144.33l41.65-41.76A144.48,144.48,0,0,1,140.2,285.14Z"/><path class="cls-8" d="M387.46,182.57a144.5,144.5,0,0,1,42.63,102.57h59a203.29,203.29,0,0,0-60-144.32l-41.64,41.75Z"/><path class="cls-9" d="M387.46,182.57l41.64-41.75a203.3,203.3,0,0,0-144-59.62v59A144.5,144.5,0,0,1,387.46,182.57Z"/><path class="cls-10" d="M387.46,387.71h0a144.6,144.6,0,0,1-102.32,42.38v59a203.46,203.46,0,0,0,144-59.62Z"/><path class="cls-11" d="M489.09,285.14h-59a144.48,144.48,0,0,1-42.63,102.57h0l41.64,41.76A203.33,203.33,0,0,0,489.09,285.14Z"/><path class="cls-12" d="M140.2,285.14a144.5,144.5,0,0,1,42.63-102.57h0l-41.65-41.75a203.32,203.32,0,0,0-60,144.32h59Z"/><path class="cls-13" d="M285.14,81.2a203.4,203.4,0,0,0-144,59.62l41.65,41.75h0A144.54,144.54,0,0,1,285.14,140.2h0v-59Z"/><path class="cls-14" d="M474.65,209.78l75.44-30.21a285.59,285.59,0,0,0-63.58-96.31L429.1,140.82A204.63,204.63,0,0,1,474.65,209.78Z"/><path class="cls-15" d="M489.09,285.14h81.19a284.38,284.38,0,0,0-20.19-105.57l-75.44,30.21A202.81,202.81,0,0,1,489.09,285.14Z"/><path class="cls-16" d="M365.33,97.64l32-74.69A284.19,284.19,0,0,0,285.14,0V81.2A202.62,202.62,0,0,1,365.33,97.64Z"/><path class="cls-17" d="M429.1,140.82l57.41-57.56A285.53,285.53,0,0,0,397.36,23l-32,74.69A204.51,204.51,0,0,1,429.1,140.82Z"/><path class="cls-18" d="M141.18,140.82,83.77,83.26a285.72,285.72,0,0,0-63.92,97.15L95.3,210.62A204.45,204.45,0,0,1,141.18,140.82Z"/><path class="cls-19" d="M81.2,285.14a202.81,202.81,0,0,1,14.1-74.52L19.85,180.41A284.37,284.37,0,0,0,0,285.14Z"/><path class="cls-20" d="M285.14,81.2h0V0h0a284.32,284.32,0,0,0-109,21.59L207.1,96.73A202.8,202.8,0,0,1,285.14,81.2Z"/><path class="cls-21" d="M207.1,96.73,176.15,21.59A285.63,285.63,0,0,0,83.77,83.26l57.41,57.56A204.68,204.68,0,0,1,207.1,96.73Z"/><path class="cls-22" d="M285.14,489.09a202.85,202.85,0,0,1-80.56-16.6l-32,74.68a284,284,0,0,0,112.59,23.11h0V489.09Z"/><path class="cls-23" d="M141.18,429.47,83.77,487a285.5,285.5,0,0,0,88.78,60.15l32-74.68A204.82,204.82,0,0,1,141.18,429.47Z"/><path class="cls-24" d="M96,361.39,20.56,391.6A285.6,285.6,0,0,0,83.77,487l57.41-57.55A204.69,204.69,0,0,1,96,361.39Z"/><path class="cls-25" d="M81.2,285.14H0A284.31,284.31,0,0,0,20.56,391.6L96,361.39A202.75,202.75,0,0,1,81.2,285.14Z"/><path class="cls-26" d="M285.14,489.09v81.19A284.23,284.23,0,0,0,393.39,549l-30.95-75.14A202.93,202.93,0,0,1,285.14,489.09Z"/><path class="cls-27" d="M362.44,473.86,393.39,549a285.5,285.5,0,0,0,93.12-62L429.1,429.47A204.78,204.78,0,0,1,362.44,473.86Z"/><path class="cls-28" d="M570.28,285.14H489.09a202.69,202.69,0,0,1-15.15,77.09l75.45,30.2a284.3,284.3,0,0,0,20.89-107.29Z"/><path class="cls-10" d="M429.1,429.47,486.51,487a285.55,285.55,0,0,0,62.88-94.59l-75.45-30.2A204.65,204.65,0,0,1,429.1,429.47Z"/><path class="cls-29" d="M119.17,339.17a7.86,7.86,0,0,1,.47-3.48,2.93,2.93,0,0,1,1.82-1.64,3.09,3.09,0,0,1,2.76.36,4.87,4.87,0,0,1,1.92,2.68,5.26,5.26,0,0,1,.25,2.39,3.91,3.91,0,0,1-.84,2,3.56,3.56,0,0,1-1.68,1.15l-.53-1.61a2.33,2.33,0,0,0,1.5-1.27,3,3,0,0,0,0-2.19,3.11,3.11,0,0,0-1.13-1.68,1.85,1.85,0,0,0-1.67-.18,1.66,1.66,0,0,0-1.06,1,6.59,6.59,0,0,0-.23,2.46,10.63,10.63,0,0,1-.16,2.68,3.94,3.94,0,0,1-.78,1.66,3.18,3.18,0,0,1-1.48.94,3,3,0,0,1-2.74-.37,5.17,5.17,0,0,1-1.91-2.79,5.92,5.92,0,0,1-.28-2.49,4.12,4.12,0,0,1,.76-2.11,3.33,3.33,0,0,1,1.7-1.21l.53,1.61a2.2,2.2,0,0,0-1.47,1.39,3.57,3.57,0,0,0,.08,2.38,3.29,3.29,0,0,0,1.15,1.78,1.82,1.82,0,0,0,1.64.21,1.76,1.76,0,0,0,1.17-1.08A7.66,7.66,0,0,0,119.17,339.17Z"/><path class="cls-29" d="M120.38,345.43a5.51,5.51,0,0,1,2.54-.42,4,4,0,0,1,3.56,2.64,4,4,0,0,1-.09,3.41,5.17,5.17,0,0,1-2.88,2.44l-.11,0a5.51,5.51,0,0,1-2.51.43,4.1,4.1,0,0,1-2.16-.78,4.28,4.28,0,0,1-1.41-1.88,4.05,4.05,0,0,1,.09-3.41,5.17,5.17,0,0,1,2.87-2.43Zm.43,1.59a4.06,4.06,0,0,0-2.09,1.62,2.34,2.34,0,0,0-.16,2.18,2.3,2.3,0,0,0,1.63,1.47A4.45,4.45,0,0,0,123,352a4,4,0,0,0,2.08-1.63,2.46,2.46,0,0,0-1.43-3.64A4.42,4.42,0,0,0,120.81,347Z"/><path class="cls-29" d="M124.68,361.42a1.2,1.2,0,0,0,.72-.88,4.77,4.77,0,0,0-.16-1.84,8,8,0,0,1-.25-2,2.83,2.83,0,0,1,.34-1.35,2.06,2.06,0,0,1,1-.82,2.46,2.46,0,0,1,2.21.06,3.86,3.86,0,0,1,1.79,1.95,4,4,0,0,1,.35,2.73,2.63,2.63,0,0,1-1.51,1.81l-.69-1.48a1.51,1.51,0,0,0,.81-1,2.16,2.16,0,0,0-.17-1.5,2.23,2.23,0,0,0-.93-1.09,1.19,1.19,0,0,0-1.13,0,1,1,0,0,0-.61.8,5.6,5.6,0,0,0,.19,1.76,8.47,8.47,0,0,1,.24,2.07,2.81,2.81,0,0,1-.35,1.4,2.21,2.21,0,0,1-1,.87,2.42,2.42,0,0,1-2.28-.06,4.26,4.26,0,0,1-1.82-2.07,4.8,4.8,0,0,1-.48-2,3.29,3.29,0,0,1,.44-1.72,2.67,2.67,0,0,1,1.22-1.11l.68,1.47a1.71,1.71,0,0,0-.9,1.14,2.56,2.56,0,0,0,.25,1.67,2.65,2.65,0,0,0,1,1.18A1.17,1.17,0,0,0,124.68,361.42Z"/><path class="cls-29" d="M128.26,363.53a5.62,5.62,0,0,1,2.47-.71,4.12,4.12,0,0,1,2.24.54,4.07,4.07,0,0,1,1.59,1.69,4,4,0,0,1,.3,3.4,5.16,5.16,0,0,1-2.59,2.75l-.1.05a5.67,5.67,0,0,1-2.45.71,4.16,4.16,0,0,1-2.23-.53,4.23,4.23,0,0,1-1.61-1.71,4,4,0,0,1-.3-3.4,5.17,5.17,0,0,1,2.58-2.74Zm.6,1.53A4.06,4.06,0,0,0,127,366.9a2.49,2.49,0,0,0,1.86,3.47,4.44,4.44,0,0,0,2.75-.65,4.06,4.06,0,0,0,1.88-1.85,2.36,2.36,0,0,0-.07-2.19,2.33,2.33,0,0,0-1.77-1.26A4.36,4.36,0,0,0,128.86,365.06Z"/><path class="cls-29" d="M196.31,437.86l-4.59-2.77L189,437.33l-1.49-.89L198.26,428l1.27.76-2.42,13.49-1.48-.89Zm-3.44-3.69,3.73,2.25,1.22-6.25Z"/><path class="cls-29" d="M199.43,443.43l3.89-7.28-1.32-.71.59-1.1,1.32.7.46-.86a3.27,3.27,0,0,1,1.84-1.7,3.1,3.1,0,0,1,2.43.36,4.15,4.15,0,0,1,.92.65l-.7,1.12a4.52,4.52,0,0,0-.74-.49,1.59,1.59,0,0,0-1.29-.16,1.86,1.86,0,0,0-1,1l-.47.89,1.79,1-.59,1.11-1.79-1-3.9,7.28Z"/><path class="cls-29" d="M206,446.82l-1.46-.72,4.23-8.52,1.45.72Zm3.77-11.56a1,1,0,0,1,.51-.49,1.07,1.07,0,0,1,1.29.64,1,1,0,0,1-.59,1.19,1,1,0,0,1-.76-.09.94.94,0,0,1-.53-.55A1,1,0,0,1,209.77,435.26Z"/><path class="cls-29" d="M210.11,448.77l-1.48-.68,5.69-12.25,1.48.69Z"/><path class="cls-29" d="M218.13,452.23a3.6,3.6,0,0,1,.17-1,3.61,3.61,0,0,1-3,0,3.36,3.36,0,0,1-1.82-1.62,2.59,2.59,0,0,1-.06-2.21,2.7,2.7,0,0,1,1.93-1.7,5.35,5.35,0,0,1,3.25.47l1.46.6.29-.69a1.88,1.88,0,0,0,0-1.45,2.07,2.07,0,0,0-1.2-1,2.44,2.44,0,0,0-1.51-.16,1.34,1.34,0,0,0-1,.76l-1.5-.63a2.25,2.25,0,0,1,1-1.07,3.49,3.49,0,0,1,1.67-.45,4.61,4.61,0,0,1,1.9.38,3.75,3.75,0,0,1,2.07,1.75,3,3,0,0,1,0,2.46l-1.68,4a5.19,5.19,0,0,0-.49,2.05l-.06.13Zm-2-2.18a2.94,2.94,0,0,0,1.5.2,2.41,2.41,0,0,0,1.31-.57l.75-1.8-1.18-.49c-1.84-.77-3-.61-3.43.46a1.48,1.48,0,0,0,0,1.3A1.91,1.91,0,0,0,216.11,450.05Z"/><path class="cls-29" d="M223.32,449.11a5.58,5.58,0,0,1,2.14-3,3.54,3.54,0,0,1,5.13,1.59l1.63-4.68,1.54.54-4.46,12.74-1.41-.49.26-1a3.28,3.28,0,0,1-3,.23,3.22,3.22,0,0,1-2.09-2.17,5.59,5.59,0,0,1,.18-3.67Zm1.48.71a4.19,4.19,0,0,0-.21,2.61A2.17,2.17,0,0,0,226,453.9a2.38,2.38,0,0,0,2.59-.56l1.45-4.12a2.4,2.4,0,0,0-1.68-2,2.15,2.15,0,0,0-2.06.25A4.66,4.66,0,0,0,224.8,449.82Z"/><path class="cls-29" d="M233,452.43a5.58,5.58,0,0,1,1.22-2.27,4,4,0,0,1,1.94-1.24,4.17,4.17,0,0,1,2.32,0,4,4,0,0,1,2.65,2.15,5.18,5.18,0,0,1,.18,3.77l0,.11a5.79,5.79,0,0,1-1.2,2.25,4,4,0,0,1-1.93,1.24,4.27,4.27,0,0,1-2.35,0,4,4,0,0,1-2.65-2.15,5.18,5.18,0,0,1-.18-3.75Zm1.52.63a4.09,4.09,0,0,0,0,2.64,2.5,2.5,0,0,0,3.79,1.07,4.44,4.44,0,0,0,1.44-2.42,4,4,0,0,0,0-2.64,2.47,2.47,0,0,0-3.76-1.08A4.39,4.39,0,0,0,234.5,453.06Z"/><path class="cls-29" d="M332.66,455.32l-5.18,1.36-.32,3.55-1.68.44L327,447.05l1.42-.37,8,11.13-1.68.44Zm-5.05-12,1.9-.5-1.62,3.09-1.27.33Zm0,11.88,4.21-1.11-3.63-5.23Z"/><path class="cls-29" d="M342.6,453.09a1.19,1.19,0,0,0-.79-.81,4.76,4.76,0,0,0-1.85-.06,8.33,8.33,0,0,1-2.06,0,2.8,2.8,0,0,1-1.29-.5,2.18,2.18,0,0,1-.71-1,2.51,2.51,0,0,1,.32-2.19,3.88,3.88,0,0,1,2.15-1.56,4,4,0,0,1,2.76,0,2.65,2.65,0,0,1,1.62,1.71l-1.55.51a1.49,1.49,0,0,0-.9-.92,2.17,2.17,0,0,0-1.51,0,2.27,2.27,0,0,0-1.2.8,1.21,1.21,0,0,0-.16,1.12,1,1,0,0,0,.72.7,5.59,5.59,0,0,0,1.78,0,8.37,8.37,0,0,1,2.08,0,2.85,2.85,0,0,1,1.34.51,2.18,2.18,0,0,1,.76,1.12,2.47,2.47,0,0,1-.33,2.26,4.25,4.25,0,0,1-2.28,1.55,4.77,4.77,0,0,1-2,.25,3.29,3.29,0,0,1-1.66-.64,2.66,2.66,0,0,1-1-1.34l1.54-.51a1.67,1.67,0,0,0,1,1,2.5,2.5,0,0,0,1.68-.05,2.66,2.66,0,0,0,1.29-.81A1.18,1.18,0,0,0,342.6,453.09Z"/><path class="cls-29" d="M353.05,446.88a5.71,5.71,0,0,1,.35,3.62,3.21,3.21,0,0,1-2,2.22,3.5,3.5,0,0,1-2.94,0l1.68,4.26-1.52.6-4.81-12.26,1.39-.54.45.95a3.35,3.35,0,0,1,2.13-2.15,3.22,3.22,0,0,1,3,.21,5.76,5.76,0,0,1,2.24,3Zm-1.58.42a4.24,4.24,0,0,0-1.57-2.11,2.21,2.21,0,0,0-2.09-.18,2.39,2.39,0,0,0-1.59,2l1.66,4.23a2.4,2.4,0,0,0,2.56.39,2.2,2.2,0,0,0,1.39-1.54A4.65,4.65,0,0,0,351.47,447.3Z"/><path class="cls-29" d="M360.61,448.76a4.16,4.16,0,0,1-3.39.16,4.69,4.69,0,0,1-2.52-2.58l-.12-.27a5.62,5.62,0,0,1-.57-2.52,4.3,4.3,0,0,1,.65-2.22,3.71,3.71,0,0,1,1.65-1.44,3.56,3.56,0,0,1,3.13-.1,5.36,5.36,0,0,1,2.4,2.75l.28.62-5.86,2.69a3.39,3.39,0,0,0,1.7,1.72,2.6,2.6,0,0,0,2.18-.05,2.88,2.88,0,0,0,1.18-.93,3.78,3.78,0,0,0,.56-1.28l1.22.29A4,4,0,0,1,360.61,448.76Zm-3.74-7.66a2.13,2.13,0,0,0-1.2,1.34,3.47,3.47,0,0,0,.08,2.17l4.33-2-.05-.11a3.15,3.15,0,0,0-1.41-1.47A2.07,2.07,0,0,0,356.87,441.1Z"/><path class="cls-29" d="M366.26,436.79a4.17,4.17,0,0,0-.74.31,2.14,2.14,0,0,0-1.31,2.2l3.09,6-1.44.75-4.36-8.45,1.41-.73.52,1a2.56,2.56,0,0,1,1.44-2.18,1.85,1.85,0,0,1,.69-.22Z"/><path class="cls-29" d="M368.57,439.21a5.57,5.57,0,0,1-.77-2.45,4,4,0,0,1,.46-2.25,4.11,4.11,0,0,1,1.64-1.64,4,4,0,0,1,3.4-.4,5.12,5.12,0,0,1,2.82,2.5l.05.1a5.57,5.57,0,0,1,.79,2.42,4.09,4.09,0,0,1-.47,2.25,4.16,4.16,0,0,1-1.66,1.67,4,4,0,0,1-3.39.39,5.16,5.16,0,0,1-2.81-2.49Zm1.52-.64a4.06,4.06,0,0,0,1.9,1.83,2.37,2.37,0,0,0,2.18-.14,2.34,2.34,0,0,0,1.22-1.83,4.44,4.44,0,0,0-.72-2.72,4.13,4.13,0,0,0-1.91-1.83,2.36,2.36,0,0,0-2.19.14,2.33,2.33,0,0,0-1.21,1.8A4.37,4.37,0,0,0,370.09,438.57Z"/><path class="cls-29" d="M431.5,381.27l4.22,2.7-.91,1.42L424,378.49l2.54-4a4.74,4.74,0,0,1,2.68-2.19,3.65,3.65,0,0,1,3,.53,3.57,3.57,0,0,1,1.78,2.53,4.94,4.94,0,0,1-.95,3.35Zm-1.16-.75L432,378a3.06,3.06,0,0,0,.58-2.09,2.35,2.35,0,0,0-1.16-1.6,2.41,2.41,0,0,0-1.93-.38,2.77,2.77,0,0,0-1.67,1.28l-1.69,2.63Z"/><path class="cls-29" d="M443,370.1a3.46,3.46,0,0,1-.39,3,3,3,0,0,1-1.9,1.59,3.88,3.88,0,0,1-2.67-.57l-5.4-3,.79-1.42,5.36,3c1.26.71,2.18.55,2.75-.48a2.44,2.44,0,0,0,0-2.84l-6-3.37.8-1.42,8.3,4.64-.75,1.35Z"/><path class="cls-29" d="M438,361.1l1.1.48a3.45,3.45,0,0,1,0-3.16q1.32-2.71,4.39-1.26l5.65,2.75-.71,1.46-5.66-2.75a2.22,2.22,0,0,0-1.57-.24,1.91,1.91,0,0,0-1.07,1.08,2.26,2.26,0,0,0-.23,1.43,2.81,2.81,0,0,0,.59,1.33l6.09,3-.71,1.46-8.55-4.16Z"/><path class="cls-29" d="M445.67,355.86a5.56,5.56,0,0,1-2.87-2.31,3.55,3.55,0,0,1,2-5.06l-.94-.48.57-1.37,8.57,3.57a3.85,3.85,0,0,1,2.26,2.13,4,4,0,0,1-.14,3.12,5.12,5.12,0,0,1-1.18,1.69,3.5,3.5,0,0,1-1.69.92l-.58-1.15a3.18,3.18,0,0,0,2.18-1.87,2.5,2.5,0,0,0,.09-2,2.54,2.54,0,0,0-1.48-1.34l-.76-.31a3.32,3.32,0,0,1,0,2.89,3.25,3.25,0,0,1-2.28,2A5.91,5.91,0,0,1,445.67,355.86Zm.8-1.44a4.26,4.26,0,0,0,2.58.36,2.13,2.13,0,0,0,1.56-1.35,2.38,2.38,0,0,0-.42-2.62l-4-1.67a2.4,2.4,0,0,0-2.12,1.54,2.17,2.17,0,0,0,.14,2.07A4.67,4.67,0,0,0,446.47,354.42Z"/><path class="cls-29" d="M455.7,344a4.17,4.17,0,0,1-2.24,2.55,4.73,4.73,0,0,1-3.61,0l-.28-.1a5.77,5.77,0,0,1-2.21-1.35,4.22,4.22,0,0,1-1.14-2,3.83,3.83,0,0,1,.1-2.2,3.57,3.57,0,0,1,2.11-2.31,5.28,5.28,0,0,1,3.64.18l.64.23-2.13,6.08a3.35,3.35,0,0,0,2.42,0,2.54,2.54,0,0,0,1.47-1.6,2.81,2.81,0,0,0,.15-1.49,3.47,3.47,0,0,0-.53-1.3l1.06-.68A4,4,0,0,1,455.7,344Zm-8.11-2.62a2.15,2.15,0,0,0,.12,1.79,3.56,3.56,0,0,0,1.63,1.45l1.57-4.5-.11,0a3.15,3.15,0,0,0-2,0A2,2,0,0,0,447.59,341.35Z"/><path class="cls-29" d="M448.72,334.18l1.16.28a3.48,3.48,0,0,1-.53-3.12q.84-2.89,4.11-2l6,1.74-.45,1.57L453,330.92a2.23,2.23,0,0,0-1.59,0,1.9,1.9,0,0,0-.87,1.25,2.31,2.31,0,0,0,0,1.45,2.85,2.85,0,0,0,.81,1.2l6.51,1.88-.45,1.56-9.14-2.63Z"/><path class="cls-29" d="M449.18,323.55l2.24.54.41-1.73,1.22.29-.41,1.73,5.74,1.37a1.31,1.31,0,0,0,.89,0,1,1,0,0,0,.47-.72,3.67,3.67,0,0,0,.07-.77l1.28.3a5.19,5.19,0,0,1-.12,1.26,2,2,0,0,1-1,1.44,2.78,2.78,0,0,1-1.94.1L452.26,326l-.4,1.68-1.23-.29.41-1.68-2.24-.54Z"/><path class="cls-29" d="M462.49,318.6a4.15,4.15,0,0,1-1.85,2.85,4.66,4.66,0,0,1-3.56.55l-.29-.06a5.64,5.64,0,0,1-2.38-1,4.18,4.18,0,0,1-1.43-1.81,3.82,3.82,0,0,1-.21-2.19,3.52,3.52,0,0,1,1.74-2.59,5.27,5.27,0,0,1,3.63-.35l.66.12-1.21,6.33a3.31,3.31,0,0,0,2.38-.38,2.54,2.54,0,0,0,1.23-1.8,2.77,2.77,0,0,0-.07-1.5,3.56,3.56,0,0,0-.72-1.2l.95-.83A4,4,0,0,1,462.49,318.6Zm-8.41-1.41a2.14,2.14,0,0,0,.39,1.76,3.53,3.53,0,0,0,1.81,1.19l.9-4.68-.12,0a3.06,3.06,0,0,0-2,.29A2,2,0,0,0,454.08,317.19Z"/><path class="cls-29" d="M439.18,210.75,436.77,206l-3.53.43-.78-1.56,13.63-1.37.66,1.32-9.24,10.11-.77-1.54Zm-.94-4.95,1.95,3.89,4.37-4.64Z"/><path class="cls-29" d="M442.22,213.66a5.52,5.52,0,0,1,3.66-.44,3.54,3.54,0,0,1,2.2,5l1-.34.58,1.37-8.54,3.63a3.84,3.84,0,0,1-3.1.13,4,4,0,0,1-2.13-2.29,4.72,4.72,0,0,1-.38-2,3.41,3.41,0,0,1,.52-1.86l1.22.4a3.16,3.16,0,0,0-.18,2.86,2.47,2.47,0,0,0,1.33,1.44,2.55,2.55,0,0,0,2-.13l.76-.32a3.31,3.31,0,0,1-2.08-2,3.22,3.22,0,0,1,.18-3A5.77,5.77,0,0,1,442.22,213.66Zm.47,1.57a4.22,4.22,0,0,0-2.07,1.6,2.15,2.15,0,0,0-.12,2.06,2.38,2.38,0,0,0,2.17,1.53l4-1.7a2.42,2.42,0,0,0,.38-2.6,2.16,2.16,0,0,0-1.58-1.34A4.63,4.63,0,0,0,442.69,215.23Z"/><path class="cls-29" d="M450.8,226.45a4.32,4.32,0,0,0-.22-.77,2.14,2.14,0,0,0-2-1.56l-6.33,2.35-.56-1.53,8.91-3.31.55,1.49-1,.4a2.56,2.56,0,0,1,2,1.69,1.62,1.62,0,0,1,.13.72Z"/><path class="cls-29" d="M444.24,232.18l-.52-1.54,9-3,.52,1.54Zm10.84-5.51a1,1,0,0,1,.71,0,1.12,1.12,0,0,1,.46,1.37,1,1,0,0,1-.56.44.89.89,0,0,1-.7,0,.94.94,0,0,1-.48-.6.87.87,0,0,1,.57-1.2Z"/><path class="cls-29" d="M449.53,232.62a5.65,5.65,0,0,1,2.56-.18,4.06,4.06,0,0,1,3.29,3,4,4,0,0,1-.42,3.39,5.12,5.12,0,0,1-3.1,2.15l-.11,0a5.71,5.71,0,0,1-2.54.19,4.08,4.08,0,0,1-2.07-1,4.23,4.23,0,0,1-1.23-2,4,4,0,0,1,.42-3.39,5.18,5.18,0,0,1,3.09-2.14Zm.27,1.62a4.14,4.14,0,0,0-2.24,1.41,2.5,2.5,0,0,0,1.11,3.78,4.55,4.55,0,0,0,2.82-.06,4.06,4.06,0,0,0,2.22-1.42,2.45,2.45,0,0,0-1.08-3.76A4.36,4.36,0,0,0,449.8,234.24Z"/><path class="cls-29" d="M326.78,119l-5.22-1.22-1.94,3-1.69-.39L325.61,109l1.44.34,1.84,13.58-1.68-.4Zm-4.41-2.45,4.24,1-.76-6.32Z"/><path class="cls-29" d="M333.13,121.93l4.33-6.33,1.59.47-6,8.15-1.19-.35-.61-10.1,1.59.47Z"/><path class="cls-29" d="M339.28,126.21l-1.54-.52,3-9,1.54.52Zm2.18-12a.94.94,0,0,1,.44-.55.92.92,0,0,1,.77,0,.89.89,0,0,1,.59.48.94.94,0,0,1,0,.72.89.89,0,0,1-.44.54.93.93,0,0,1-.77,0,.88.88,0,0,1-.61-1.18Z"/><path class="cls-29" d="M346.35,118.62l-.38,1.13a3.48,3.48,0,0,1,3.15-.26q2.82,1.08,1.62,4.27l-2.25,5.86L347,129l2.26-5.87a2.19,2.19,0,0,0,.1-1.59,1.91,1.91,0,0,0-1.16-1,2.35,2.35,0,0,0-1.45-.1,2.91,2.91,0,0,0-1.27.7L343,127.53l-1.52-.59,3.41-8.88Z"/><path class="cls-29" d="M355.78,132.84a3.1,3.1,0,0,1,.2-1,3.65,3.65,0,0,1-3,0,3.38,3.38,0,0,1-1.78-1.68,2.53,2.53,0,0,1,0-2.2,2.67,2.67,0,0,1,2-1.64,5.31,5.31,0,0,1,3.23.55l1.44.65.31-.68a1.85,1.85,0,0,0,.09-1.45,2.05,2.05,0,0,0-1.16-1.07,2.33,2.33,0,0,0-1.51-.2,1.28,1.28,0,0,0-1,.72l-1.5-.67a2.25,2.25,0,0,1,1-1,3.42,3.42,0,0,1,1.68-.4,4.68,4.68,0,0,1,1.9.43,3.77,3.77,0,0,1,2,1.81,3,3,0,0,1-.05,2.46l-1.8,4a5.38,5.38,0,0,0-.55,2l-.06.12Zm-2-2.23a3,3,0,0,0,1.49.23,2.4,2.4,0,0,0,1.33-.53l.8-1.78-1.16-.52q-2.73-1.23-3.45.37a1.46,1.46,0,0,0,0,1.29A1.94,1.94,0,0,0,353.82,130.61Z"/><path class="cls-29" d="M360.88,129.89a5.56,5.56,0,0,1,2.54-2.65,3.53,3.53,0,0,1,4.84,2.32l2.3-4.4,1.44.76-6.25,12-1.32-.69.4-.94a3.29,3.29,0,0,1-3-.2,3.22,3.22,0,0,1-1.76-2.44,5.65,5.65,0,0,1,.71-3.62Zm1.35.91a4.24,4.24,0,0,0-.58,2.55,2.17,2.17,0,0,0,1.22,1.67,2.36,2.36,0,0,0,2.64-.19l2-3.87a2.39,2.39,0,0,0-1.36-2.23,2.17,2.17,0,0,0-2.08,0A4.64,4.64,0,0,0,362.23,130.8Z"/><path class="cls-29" d="M369.73,134.55a5.62,5.62,0,0,1,1.77-1.88,4,4,0,0,1,2.19-.69,4.15,4.15,0,0,1,2.23.63,4,4,0,0,1,2,2.77,5.22,5.22,0,0,1-.81,3.68l-.06.1a5.48,5.48,0,0,1-1.74,1.86,4.08,4.08,0,0,1-2.18.7,4.26,4.26,0,0,1-2.27-.64,4,4,0,0,1-2-2.77,5.16,5.16,0,0,1,.79-3.67Zm1.31,1a4.05,4.05,0,0,0-.68,2.56,2.49,2.49,0,0,0,3.38,2,4.49,4.49,0,0,0,2-2,4.12,4.12,0,0,0,.66-2.56,2.38,2.38,0,0,0-1.19-1.85,2.33,2.33,0,0,0-2.16-.17A4.38,4.38,0,0,0,371,135.55Z"/><path class="cls-29" d="M198.44,122.2l1.75-.91-.9,3.38-1.16.6ZM206,132.77l-4.75,2.47.47,3.53-1.54.8L198.63,126l1.31-.69,10.24,9.1-1.54.8Zm-4.94,1,3.86-2-4.69-4.31Z"/><path class="cls-29" d="M214.19,131.38a2.33,2.33,0,0,0,1.17-1.1,1.84,1.84,0,0,0,.13-1.5l1.4-.62a2.87,2.87,0,0,1,.12,1.65,3.79,3.79,0,0,1-.79,1.64,4,4,0,0,1-1.49,1.14,3.9,3.9,0,0,1-3.35.07,5.16,5.16,0,0,1-2.49-2.77l-.11-.25a5.67,5.67,0,0,1-.54-2.47,3.94,3.94,0,0,1,.66-2.13,4.19,4.19,0,0,1,1.82-1.46,3.79,3.79,0,0,1,2.81-.2,3.44,3.44,0,0,1,2.05,1.81l-1.41.63a2.24,2.24,0,0,0-1.25-1.1,2.18,2.18,0,0,0-1.66.08,2.3,2.3,0,0,0-1.4,1.6,4.18,4.18,0,0,0,.43,2.63l.12.28a4.13,4.13,0,0,0,1.65,2A2.28,2.28,0,0,0,214.19,131.38Z"/><path class="cls-29" d="M215.16,119.15a1,1,0,0,1,0-.71.89.89,0,0,1,.57-.51.94.94,0,0,1,.77,0,1,1,0,0,1,.47.53.87.87,0,0,1-.56,1.22,1,1,0,0,1-.76,0A1,1,0,0,1,215.16,119.15Zm6.08,10.54-1.51.6-3.51-8.84,1.51-.6Z"/><path class="cls-29" d="M221.43,124.38a5.56,5.56,0,0,1-.18-3.66,3.52,3.52,0,0,1,5-2l-1.64-4.68,1.54-.54,4.45,12.75-1.41.49-.41-.94a3.32,3.32,0,0,1-2.17,2,3.27,3.27,0,0,1-3-.39,5.65,5.65,0,0,1-2.15-3ZM223,124a4.19,4.19,0,0,0,1.46,2.17,2.14,2.14,0,0,0,2,.25,2.36,2.36,0,0,0,1.68-2l-1.44-4.13a2.41,2.41,0,0,0-2.56-.53,2.18,2.18,0,0,0-1.46,1.49A4.7,4.7,0,0,0,223,124Z"/><path class="cls-29" d="M230.9,121.11a5.67,5.67,0,0,1-.16-2.57,4,4,0,0,1,1-2.07,4.16,4.16,0,0,1,2-1.2,4,4,0,0,1,3.39.43,5.24,5.24,0,0,1,2.13,3.12l0,.11a5.7,5.7,0,0,1,.17,2.54,4.09,4.09,0,0,1-1,2.07,4.23,4.23,0,0,1-2,1.21,4,4,0,0,1-3.38-.44,5.13,5.13,0,0,1-2.13-3.09Zm1.63-.26a4,4,0,0,0,1.4,2.24,2.49,2.49,0,0,0,3.78-1.09,4.43,4.43,0,0,0-.05-2.81,4,4,0,0,0-1.4-2.24,2.38,2.38,0,0,0-2.17-.4,2.34,2.34,0,0,0-1.6,1.46A4.38,4.38,0,0,0,232.53,120.85Z"/><path class="cls-29" d="M111,237.7l11.2-1-8.82-7,.62-2.1,12.27,3.64-.48,1.61L121,231.41l-5.11-1.68,8.74,7-.36,1.24L113.15,239l5.18,1.36,4.78,1.41-.48,1.62-12.27-3.63Z"/><path class="cls-29" d="M128.63,225.46a4.2,4.2,0,0,1-2.3,2.5,4.67,4.67,0,0,1-3.61-.07l-.28-.1a5.62,5.62,0,0,1-2.17-1.4,4.23,4.23,0,0,1-1.1-2,3.8,3.8,0,0,1,.16-2.19,3.55,3.55,0,0,1,2.16-2.26,5.24,5.24,0,0,1,3.64.27l.63.24-2.28,6a3.43,3.43,0,0,0,2.42,0,2.62,2.62,0,0,0,1.52-1.57,2.83,2.83,0,0,0,.18-1.49,3.58,3.58,0,0,0-.5-1.3l1.07-.66A4,4,0,0,1,128.63,225.46Zm-8-2.82a2.17,2.17,0,0,0,.09,1.8,3.37,3.37,0,0,0,1.58,1.48l1.68-4.45-.11-.05a3.15,3.15,0,0,0-2,0A2,2,0,0,0,120.58,222.64Z"/><path class="cls-29" d="M131.13,218.82l-.64,1.49L118.06,215l.64-1.5Z"/><path class="cls-29" d="M127.46,215a5.71,5.71,0,0,1-2-1.58,4.16,4.16,0,0,1-.9-2.12,4.21,4.21,0,0,1,.41-2.28,4,4,0,0,1,2.57-2.26,5.14,5.14,0,0,1,3.74.45l.11.05a5.79,5.79,0,0,1,2,1.55,4.09,4.09,0,0,1,.9,2.11,4.19,4.19,0,0,1-.42,2.32,4,4,0,0,1-2.56,2.25,5.15,5.15,0,0,1-3.73-.44Zm.87-1.39a4.08,4.08,0,0,0,2.61.42,2.49,2.49,0,0,0,1.68-3.56,4.48,4.48,0,0,0-2.15-1.82,4,4,0,0,0-2.61-.42,2.47,2.47,0,0,0-1.69,3.53A4.51,4.51,0,0,0,128.33,213.6Z"/><path class="cls-29" d="M136.77,201.69a1.2,1.2,0,0,0-1.13-.06,4.77,4.77,0,0,0-1.38,1.22,8.26,8.26,0,0,1-1.5,1.42,2.85,2.85,0,0,1-1.28.52,2.06,2.06,0,0,1-1.23-.28A2.46,2.46,0,0,1,129,202.7a4.44,4.44,0,0,1,2.49-4.51,2.65,2.65,0,0,1,2.36.14l-.78,1.43a1.47,1.47,0,0,0-1.28,0,2.11,2.11,0,0,0-1.11,1,2.16,2.16,0,0,0-.33,1.4,1.22,1.22,0,0,0,.65.93,1,1,0,0,0,1,0,5.52,5.52,0,0,0,1.31-1.2,9.07,9.07,0,0,1,1.51-1.42,3,3,0,0,1,1.34-.55,2.27,2.27,0,0,1,1.31.3,2.46,2.46,0,0,1,1.31,1.88,4.31,4.31,0,0,1-.6,2.69,4.63,4.63,0,0,1-1.32,1.58,3.37,3.37,0,0,1-1.65.67,2.77,2.77,0,0,1-1.61-.32l.78-1.43a1.68,1.68,0,0,0,1.45,0,3,3,0,0,0,1.57-2.67A1.14,1.14,0,0,0,136.77,201.69Z"/><path class="cls-29" d="M136.31,197.75a5.64,5.64,0,0,1-1.84-1.79,4,4,0,0,1,0-4.43,4,4,0,0,1,2.8-2,5.14,5.14,0,0,1,3.67.87l.1.06a5.75,5.75,0,0,1,1.83,1.77,4,4,0,0,1,.66,2.19,4.25,4.25,0,0,1-.68,2.26,4,4,0,0,1-2.79,1.95,5.12,5.12,0,0,1-3.66-.86Zm1-1.29a4,4,0,0,0,2.54.72,2.49,2.49,0,0,0,2.07-3.35,4.43,4.43,0,0,0-1.93-2.05,4,4,0,0,0-2.54-.71,2.46,2.46,0,0,0-2.08,3.32A4.39,4.39,0,0,0,137.34,196.46Z"/><path class="cls-29" d="M186.34,355.46a1.58,1.58,0,0,0,.76-1.26,8.5,8.5,0,0,0-.44-2.38,15.2,15.2,0,0,1-.59-2.67,4.12,4.12,0,0,1,1.61-4.19,3.58,3.58,0,0,1,2.17-.66,4.5,4.5,0,0,1,2.33.78,7.47,7.47,0,0,1,2.06,2.06,6.74,6.74,0,0,1,1.13,2.68,4.57,4.57,0,0,1-.25,2.53,4.3,4.3,0,0,1-1.59,1.93l-1.74-2.54a2,2,0,0,0,1-1.44,2.62,2.62,0,0,0-.55-1.81,2.85,2.85,0,0,0-1.39-1.18,1.5,1.5,0,0,0-1.39.19,1.44,1.44,0,0,0-.59,1.3,8.1,8.1,0,0,0,.46,2.3,9.24,9.24,0,0,1,.54,4.26A3.9,3.9,0,0,1,188.1,358a3.6,3.6,0,0,1-3.34.51,6.46,6.46,0,0,1-3.14-2.64,7.56,7.56,0,0,1-1.25-2.94,5,5,0,0,1,.2-2.76,4.54,4.54,0,0,1,1.68-2.05l1.75,2.55c-1.36.93-1.49,2.21-.37,3.83a2.9,2.9,0,0,0,1.33,1.16A1.46,1.46,0,0,0,186.34,355.46Z"/><path class="cls-29" d="M190.68,367.21a3.41,3.41,0,0,1,.56-.87,3.56,3.56,0,0,1-2.72-1.36,4,4,0,0,1-1-2.67,3,3,0,0,1,1.13-2.35,3.12,3.12,0,0,1,2.91-.75,6.41,6.41,0,0,1,3.17,2.26l.88,1,.48-.41a1.88,1.88,0,0,0,.69-1.09,1.56,1.56,0,0,0-.46-1.25,1.75,1.75,0,0,0-1-.67,1.21,1.21,0,0,0-1,.31l-1.92-2.26a3,3,0,0,1,1.75-.7,3.92,3.92,0,0,1,2.06.45,6.31,6.31,0,0,1,1.94,1.57,4.88,4.88,0,0,1,1.32,3.15A3.64,3.64,0,0,1,198,364.4l-3.67,3.11a5.23,5.23,0,0,0-1.53,1.88l-.14.11Zm0-3.2a2.49,2.49,0,0,0,1,.74,2,2,0,0,0,1.13.12l1.46-1.24-.72-.84c-1-1.13-1.86-1.41-2.7-.82l-.14.11a1.18,1.18,0,0,0-.45.89A1.53,1.53,0,0,0,190.67,364Z"/><path class="cls-29" d="M196.47,373.41l-2.07-2.13,11.26-11,2.08,2.12Z"/><path class="cls-29" d="M203.35,379.8a3.13,3.13,0,0,1,.44-.94,3.6,3.6,0,0,1-2.89-1,3.92,3.92,0,0,1-1.39-2.5,3,3,0,0,1,.78-2.49,3.12,3.12,0,0,1,2.77-1.16,6.48,6.48,0,0,1,3.46,1.8l1,.91L208,374a1.79,1.79,0,0,0,.52-1.18,1.53,1.53,0,0,0-.62-1.17,1.78,1.78,0,0,0-1.12-.51,1.22,1.22,0,0,0-1,.45l-2.21-2a3,3,0,0,1,1.63-.94,4,4,0,0,1,2.11.16,6.06,6.06,0,0,1,2.13,1.27,4.82,4.82,0,0,1,1.75,2.93,3.64,3.64,0,0,1-1,3l-3.2,3.59a5.47,5.47,0,0,0-1.26,2.08l-.11.13Zm-.46-3.17a2.51,2.51,0,0,0,1.1.59,2,2,0,0,0,1.13,0l1.27-1.43-.83-.73c-1.11-1-2-1.13-2.79-.43l-.13.13a1.17,1.17,0,0,0-.31.94A1.47,1.47,0,0,0,202.89,376.63Z"/><path class="cls-29" d="M210.53,378.57a6.66,6.66,0,0,1,3.37-2.65,3.74,3.74,0,0,1,3.48.63,3.37,3.37,0,0,1,1.45,2.55l3.33-4.57,2.41,1.75L215.29,389l-2.16-1.58.58-1a3.48,3.48,0,0,1-3.12-.56,3.74,3.74,0,0,1-1.63-3.09A6.91,6.91,0,0,1,210.53,378.57Zm2.26,1.92a4.48,4.48,0,0,0-1,2.26,1.78,1.78,0,0,0,.79,1.6,2,2,0,0,0,2.25.2l2.58-3.54a2,2,0,0,0-.87-2.07Q214.84,377.68,212.79,380.49Z"/><path class="cls-29" d="M220.31,385.58a6.65,6.65,0,0,1,2-2.22,4.6,4.6,0,0,1,2.59-.8,5.23,5.23,0,0,1,2.75.79,5,5,0,0,1,2.47,3,5.53,5.53,0,0,1-.52,4l-.36.67a5.81,5.81,0,0,1-3.3,2.82,5.53,5.53,0,0,1-6.61-3.86,5.9,5.9,0,0,1,.88-4.34Zm2.46,1.68a4.08,4.08,0,0,0-.71,2.38,2.13,2.13,0,0,0,2.91,1.72,4.49,4.49,0,0,0,1.86-2,4.11,4.11,0,0,0,.69-2.38,2,2,0,0,0-1-1.59,1.92,1.92,0,0,0-1.88-.12A4.59,4.59,0,0,0,222.77,387.26Z"/><path class="cls-29" d="M347.51,390l-4.69,2.65.62,3.19-2.85,1.61-2.51-15.73,2.48-1.41,12.21,10.25-2.84,1.61Zm-5.2.08,3.25-1.84-4.38-3.94Z"/><path class="cls-29" d="M349.77,379.17l.82.94a3.92,3.92,0,0,1,1.68-3.08,3,3,0,0,1,3.37-.42,3.81,3.81,0,0,1,1.64-3.36,3.26,3.26,0,0,1,2.77-.78,4.83,4.83,0,0,1,2.61,2l4.27,5.65-2.37,1.8-4.26-5.65a2.18,2.18,0,0,0-1.13-.88,1.64,1.64,0,0,0-1.3.44,1.85,1.85,0,0,0-.71,2.13l4.6,6.07-2.36,1.79-4.26-5.64a2.15,2.15,0,0,0-1.14-.89,1.66,1.66,0,0,0-1.29.44,1.92,1.92,0,0,0-.83,1.93l4.73,6.26-2.37,1.79-6.68-8.85Z"/><path class="cls-29" d="M373.84,373.39a3.38,3.38,0,0,1-.91-.51,3.61,3.61,0,0,1-1.17,2.81,4,4,0,0,1-2.6,1.21,3,3,0,0,1-2.42-1,3.12,3.12,0,0,1-.95-2.85,6.43,6.43,0,0,1,2-3.31l1-.95-.45-.46a1.8,1.8,0,0,0-1.14-.61,1.55,1.55,0,0,0-1.21.54,1.81,1.81,0,0,0-.6,1.07,1.23,1.23,0,0,0,.39,1l-2.13,2.06a3,3,0,0,1-.82-1.69,4,4,0,0,1,.31-2.1,6.18,6.18,0,0,1,1.43-2,4.82,4.82,0,0,1,3-1.53,3.62,3.62,0,0,1,2.89,1.24l3.34,3.45a5.33,5.33,0,0,0,2,1.41l.12.12Zm-3.2.22a2.46,2.46,0,0,0,.67-1.05,1.9,1.9,0,0,0,0-1.13L370,370.06l-.79.77c-1.07,1-1.27,1.95-.63,2.75l.12.14a1.18,1.18,0,0,0,.91.38A1.49,1.49,0,0,0,370.64,373.61Z"/><path class="cls-29" d="M375.46,359.32a6.94,6.94,0,0,0-.77.74,2.18,2.18,0,0,0-.6,2.41l5.45,4.79-2,2.23-8.34-7.32,1.85-2.11,1,.81a2.76,2.76,0,0,1,.48-2.86,3.34,3.34,0,0,1,.71-.61Z"/><path class="cls-29" d="M378.14,360.39a6.51,6.51,0,0,1-2.58-3.43,3.94,3.94,0,0,1,.71-3.56,3.41,3.41,0,0,1,2.7-1.53l-.77-.73,1.61-2.15,8.6,6.4a4.8,4.8,0,0,1,1.64,2,4.26,4.26,0,0,1,.2,2.48A6.49,6.49,0,0,1,389,362.5a6.08,6.08,0,0,1-1.81,1.61,4.2,4.2,0,0,1-2.06.66l-.66-2.13a3.5,3.5,0,0,0,2.6-1.41,2.57,2.57,0,0,0,.59-1.85,2.38,2.38,0,0,0-1.05-1.6l-.47-.35a3.44,3.44,0,0,1-.68,2.85,3.91,3.91,0,0,1-3.19,1.66,6.5,6.5,0,0,1-4.07-1.48Zm1.94-2.25a4.08,4.08,0,0,0,2.26.93,1.93,1.93,0,0,0,1.68-.82,2.06,2.06,0,0,0,.34-2.16l-3.75-2.79a2,2,0,0,0-2,.93,2,2,0,0,0-.3,1.86A4.57,4.57,0,0,0,380.08,358.14Z"/><path class="cls-29" d="M385.3,350.58a6.57,6.57,0,0,1-2.19-2.05,4.63,4.63,0,0,1-.78-2.6,5.28,5.28,0,0,1,.82-2.74,5,5,0,0,1,3.06-2.44,5.47,5.47,0,0,1,4,.55l.66.37a5.83,5.83,0,0,1,2.79,3.33,5.53,5.53,0,0,1-3.93,6.57,5.88,5.88,0,0,1-4.32-.92Zm1.71-2.43a4.18,4.18,0,0,0,2.38.73,2,2,0,0,0,1.59-1,2,2,0,0,0,.15-1.87,4.55,4.55,0,0,0-2-1.88,4.1,4.1,0,0,0-2.37-.71,2.11,2.11,0,0,0-1.74,2.9A4.61,4.61,0,0,0,387,348.15Z"/><path class="cls-29" d="M355.3,195.51,351,192.27l-2.67,1.85-2.61-2,13.4-8.61,2.28,1.72-4.49,15.29-2.61-2Zm-2.16-4.74,3,2.24,1.85-5.59Zm10-9.19,2.58,1.94-4.18.84-1.92-1.45Z"/><path class="cls-29" d="M362,202.48a1.88,1.88,0,0,0,1.28.58,1.6,1.6,0,0,0,1.21-.51l2,1.89a3.8,3.8,0,0,1-1.86,1.09,4,4,0,0,1-2.2-.06,5.07,5.07,0,0,1-2.05-1.2,4.81,4.81,0,0,1-1.72-3.67,6,6,0,0,1,1.84-4l.13-.14a6,6,0,0,1,3.79-2.07,4.74,4.74,0,0,1,3.78,1.43,4.64,4.64,0,0,1,1.63,3.14,4.15,4.15,0,0,1-1.21,3.18l-2-1.89a2,2,0,0,0,.56-1.4,2,2,0,0,0-2.28-1.83,4.38,4.38,0,0,0-2.05,1.44l-.21.22a4.5,4.5,0,0,0-1.3,2.16A1.81,1.81,0,0,0,362,202.48Z"/><path class="cls-29" d="M366.81,210.44l-2-2.17,8.1-7.59,2,2.18Zm8-11.84a1.47,1.47,0,0,1,1.11-.43,1.66,1.66,0,0,1,1.14.59,1.71,1.71,0,0,1,.52,1.18,1.45,1.45,0,0,1-.5,1.08,1.42,1.42,0,0,1-1.12.42,1.67,1.67,0,0,1-1.13-.58,1.7,1.7,0,0,1-.51-1.17A1.42,1.42,0,0,1,374.85,198.6Z"/><path class="cls-29" d="M372.23,207.89a6.64,6.64,0,0,1,3.94-1.69,3.78,3.78,0,0,1,3.2,1.51,3.41,3.41,0,0,1,.74,2.84l4.4-3.56,1.87,2.32-12.25,9.89-1.68-2.08.82-.85a3.52,3.52,0,0,1-2.87-1.35,3.79,3.79,0,0,1-.77-3.42A6.9,6.9,0,0,1,372.23,207.89Zm1.69,2.44a4.39,4.39,0,0,0-1.52,1.93,1.76,1.76,0,0,0,.34,1.75,2,2,0,0,0,2.12.78l3.41-2.76a2,2,0,0,0-.3-2.22Q376.62,208.15,373.92,210.33Z"/><path class="cls-29" d="M379.52,217a6.66,6.66,0,0,1,2.81-1.08,4.65,4.65,0,0,1,2.68.44,5.38,5.38,0,0,1,2.11,1.93,5,5,0,0,1,.85,3.82,5.51,5.51,0,0,1-2.25,3.37l-.63.43a5.71,5.71,0,0,1-4.21,1.05,5.52,5.52,0,0,1-4.19-6.4,5.92,5.92,0,0,1,2.72-3.49Zm1.45,2.6a4.06,4.06,0,0,0-1.7,1.82,2.13,2.13,0,0,0,1.84,2.83,4.49,4.49,0,0,0,2.55-.94,4.13,4.13,0,0,0,1.68-1.82,2,2,0,0,0-.22-1.89,1.92,1.92,0,0,0-1.63-.94A4.54,4.54,0,0,0,381,219.58Z"/><path class="cls-29" d="M193.28,223.22l-12-8.93,2.75-3.68a6.87,6.87,0,0,1,2.82-2.29,6.2,6.2,0,0,1,3.47-.44,7.83,7.83,0,0,1,3.5,1.53l.55.41a7.8,7.8,0,0,1,2.45,2.9,6.12,6.12,0,0,1,.57,3.44,7.13,7.13,0,0,1-1.38,3.36Zm-8.12-9.9,8,6,.89-1.19a3.35,3.35,0,0,0,.71-2.92,5.37,5.37,0,0,0-2.12-2.8l-.64-.47a5.41,5.41,0,0,0-3.33-1.31,3.36,3.36,0,0,0-2.59,1.51Z"/><path class="cls-29" d="M204.65,207.53a3.73,3.73,0,0,1-1.09,3.13A3.55,3.55,0,0,1,201,212a4.41,4.41,0,0,1-2.85-1.35l-5.33-4.94,2-2.17,5.26,4.88a1.46,1.46,0,0,0,2.34,0,2.12,2.12,0,0,0,.64-2.23l-5.76-5.35,2-2.18,8.14,7.55-1.9,2Z"/><path class="cls-29" d="M211,202.93l-2.18,2-10.73-11.52,2.17-2Z"/><path class="cls-29" d="M214.6,197a1.94,1.94,0,0,0,.76-1.19,1.57,1.57,0,0,0-.35-1.26l2.16-1.75a3.79,3.79,0,0,1,.83,2,4.15,4.15,0,0,1-.37,2.18,5.26,5.26,0,0,1-1.48,1.86,4.81,4.81,0,0,1-3.87,1.18,6,6,0,0,1-3.7-2.38l-.12-.15a5.93,5.93,0,0,1-1.52-4,4.79,4.79,0,0,1,1.95-3.54,4.67,4.67,0,0,1,3.34-1.18,4.22,4.22,0,0,1,3,1.65l-2.16,1.75a2,2,0,0,0-1.3-.76,1.76,1.76,0,0,0-1.39.43,1.79,1.79,0,0,0-.75,1.57,4.46,4.46,0,0,0,1.13,2.24l.2.23a4.42,4.42,0,0,0,2,1.59A1.79,1.79,0,0,0,214.6,197Z"/><path class="cls-29" d="M224.78,192.54a5.48,5.48,0,0,1-4.14,1,5.32,5.32,0,0,1-3.49-2.48l-.15-.24a6.63,6.63,0,0,1-1.12-2.84,4.78,4.78,0,0,1,.4-2.71,5.23,5.23,0,0,1,1.86-2.09,4.58,4.58,0,0,1,3.78-.78,5.82,5.82,0,0,1,3.34,2.66l.67,1L220,189.93a2.73,2.73,0,0,0,1.69,1,2.61,2.61,0,0,0,1.89-.46,3.2,3.2,0,0,0,1.54-2.52l2.11.56a4.46,4.46,0,0,1-.68,2.22A6.09,6.09,0,0,1,224.78,192.54Zm-5.33-7.41a1.82,1.82,0,0,0-.86,1.29,3.16,3.16,0,0,0,.36,1.81l3.43-2.28-.13-.2a2.21,2.21,0,0,0-1.29-1A1.92,1.92,0,0,0,219.45,185.13Z"/><circle class="cls-30" cx="285.14" cy="284.78" r="92.95"/><path class="cls-29" d="M333.06,504l-1-5-3.33-.49-.32-1.61L341.17,499l.27,1.37-10.93,6.91-.33-1.6Zm.37-4.75.81,4,5.14-3.13Z"/><path class="cls-29" d="M331.11,510.34l-.3-1.51,12.5-2.51.3,1.5Z"/><path class="cls-29" d="M333.37,516a2.21,2.21,0,0,0,.77,1.31,1.73,1.73,0,0,0,1.36.42l.28,1.43a2.8,2.8,0,0,1-1.54-.24,3.43,3.43,0,0,1-1.35-1.06,4,4,0,0,1-.13-4.72,5,5,0,0,1,3.08-1.72l.25,0a5.45,5.45,0,0,1,2.38,0,3.66,3.66,0,0,1,1.83,1.05,3.94,3.94,0,0,1,1,2,3.59,3.59,0,0,1-.39,2.64,3.2,3.2,0,0,1-2.1,1.51l-.28-1.42a2.13,2.13,0,0,0,1.27-.93,2,2,0,0,0,.26-1.55,2.15,2.15,0,0,0-1.18-1.61,4,4,0,0,0-2.52-.15l-.28.06a3.91,3.91,0,0,0-2.22,1.09A2.17,2.17,0,0,0,333.37,516Z"/><path class="cls-29" d="M334.44,526.88a3.49,3.49,0,0,1,.89-.4,3.42,3.42,0,0,1-1.6-2.28,3.21,3.21,0,0,1,.31-2.29,2.43,2.43,0,0,1,1.7-1.21,2.53,2.53,0,0,1,2.34.62,5,5,0,0,1,1.36,2.79l.29,1.46.69-.14a1.7,1.7,0,0,0,1.17-.72,2,2,0,0,0,.18-1.49,2.16,2.16,0,0,0-.68-1.27,1.19,1.19,0,0,0-1.09-.34l-.3-1.52a2.08,2.08,0,0,1,1.36.21,3.15,3.15,0,0,1,1.23,1.08,4.14,4.14,0,0,1,.71,1.69,3.51,3.51,0,0,1-.28,2.53,2.79,2.79,0,0,1-1.91,1.32l-4.05.82a5,5,0,0,0-1.87.69l-.13,0Zm.65-2.73a2.63,2.63,0,0,0,.63,1.27,2.22,2.22,0,0,0,1.14.73l1.81-.36-.24-1.18c-.37-1.85-1.1-2.66-2.18-2.45a1.41,1.41,0,0,0-1,.7A1.86,1.86,0,0,0,335.09,524.15Z"/><path class="cls-29" d="M335.5,532.16l-.3-1.51,12.5-2.51.3,1.5Z"/><path class="cls-29" d="M336.32,536.21,336,534.7l8.81-1.77.3,1.51Zm10.81-3.87a.88.88,0,0,1,.66.1.85.85,0,0,1,.39.61.87.87,0,0,1-.12.72.94.94,0,0,1-.57.35.88.88,0,0,1-.66-.1.92.92,0,0,1-.38-.62.82.82,0,0,1,.68-1.06Z"/><path class="cls-29" d="M345.89,538.27l-1.09.27a3.3,3.3,0,0,1,1.8,2.39q.56,2.79-2.59,3.44l-5.82,1.17-.3-1.5,5.83-1.17a2.15,2.15,0,0,0,1.32-.72,1.77,1.77,0,0,0,.19-1.42,2.27,2.27,0,0,0-.65-1.21,2.73,2.73,0,0,0-1.2-.66l-6.28,1.26-.3-1.5,8.81-1.77Z"/><path class="cls-29" d="M343.06,546.53a5.23,5.23,0,0,1,2.43,0,3.78,3.78,0,0,1,2.85,3,3.76,3.76,0,0,1-.66,3.16,4.89,4.89,0,0,1-3.09,1.78l-.1,0a5.42,5.42,0,0,1-2.41,0,3.77,3.77,0,0,1-1.87-1.09,4,4,0,0,1-1-2,3.78,3.78,0,0,1,.66-3.15,4.81,4.81,0,0,1,3.07-1.77Zm.12,1.55a3.82,3.82,0,0,0-2.21,1.15,2.36,2.36,0,0,0,.74,3.64,4.27,4.27,0,0,0,2.66.17,3.89,3.89,0,0,0,2.2-1.16,2.24,2.24,0,0,0,.54-2,2.19,2.19,0,0,0-1.25-1.62A4.11,4.11,0,0,0,343.18,548.08Z"/><path class="cls-29" d="M227.89,555.26l-.82,4.09,2.37,1.43-.27,1.32-9-5.68.23-1.13,10.51-1.77-.27,1.32Zm-1.79,3.49.66-3.32-4.9.74Z"/><path class="cls-29" d="M230.05,547.8a.94.94,0,0,0-.86.23,3.57,3.57,0,0,0-.75,1.22,6.46,6.46,0,0,1-.78,1.4,2.14,2.14,0,0,1-.83.68,1.61,1.61,0,0,1-1,.08,1.91,1.91,0,0,1-1.36-1.06,3,3,0,0,1-.23-2.05,3.08,3.08,0,0,1,1-1.87,2.06,2.06,0,0,1,1.78-.44l-.25,1.25a1.12,1.12,0,0,0-1,.25,1.69,1.69,0,0,0-.59,1,1.74,1.74,0,0,0,.08,1.11.94.94,0,0,0,.7.54.76.76,0,0,0,.75-.22,4.24,4.24,0,0,0,.69-1.19,6.85,6.85,0,0,1,.8-1.41,2.31,2.31,0,0,1,.86-.71,1.75,1.75,0,0,1,1.05-.08,1.88,1.88,0,0,1,1.4,1.09,3.26,3.26,0,0,1,.18,2.13,3.68,3.68,0,0,1-.62,1.48,2.51,2.51,0,0,1-1.07.88,2.15,2.15,0,0,1-1.27.14l.25-1.24a1.32,1.32,0,0,0,1.09-.3,2,2,0,0,0,.61-1.16,2.12,2.12,0,0,0-.06-1.19A.91.91,0,0,0,230.05,547.8Z"/><path class="cls-29" d="M223.88,541.83l1.75.35.27-1.35,1,.19-.27,1.36,4.5.9a1,1,0,0,0,.69,0,.78.78,0,0,0,.35-.57,3.34,3.34,0,0,0,0-.61l1,.21a3.44,3.44,0,0,1,0,1,1.62,1.62,0,0,1-.76,1.16,2.24,2.24,0,0,1-1.51.13l-4.5-.9-.26,1.32-1-.2.26-1.32-1.75-.35Z"/><path class="cls-29" d="M228,536.11a4.3,4.3,0,0,0-.17.6,1.66,1.66,0,0,0,.71,1.86l5.15,1-.25,1.24-7.25-1.46.24-1.21.84.15a2,2,0,0,1-.63-1.93,1.33,1.33,0,0,1,.21-.53Z"/><path class="cls-29" d="M225.21,534.34a.75.75,0,0,1-.47-.29.68.68,0,0,1-.1-.59A.72.72,0,0,1,225,533a.78.78,0,0,1,.55-.08.69.69,0,0,1,.46.29.72.72,0,0,1,.09.59.7.7,0,0,1-.31.5A.72.72,0,0,1,225.21,534.34Zm9.44.5-.25,1.24-7.25-1.46.25-1.24Z"/><path class="cls-29" d="M228,530.24l.92.15a2.75,2.75,0,0,1-.61-2.38q.47-2.31,3.06-1.8l4.8,1-.25,1.24-4.8-1a1.72,1.72,0,0,0-1.23.12,1.49,1.49,0,0,0-.6,1,1.88,1.88,0,0,0,.11,1.13,2.28,2.28,0,0,0,.7.88l5.17,1-.25,1.23-7.25-1.45Z"/><path class="cls-29" d="M232.83,524.84a4.34,4.34,0,0,1-2.54-1.33,2.76,2.76,0,0,1,.77-4.16l-.79-.22.23-1.13,7.07,1.42a3,3,0,0,1,2.05,1.28,3.16,3.16,0,0,1,.37,2.4,3.73,3.73,0,0,1-.65,1.47,2.61,2.61,0,0,1-1.15,1l-.61-.79A2.49,2.49,0,0,0,239,523a2,2,0,0,0-.23-1.52,2,2,0,0,0-1.33-.79l-.63-.13a2.57,2.57,0,0,1,.45,2.21,2.52,2.52,0,0,1-1.44,1.85A4.59,4.59,0,0,1,232.83,524.84Zm.39-1.22a3.28,3.28,0,0,0,2-.12,1.66,1.66,0,0,0,1-1.26,1.85,1.85,0,0,0-.72-1.94l-3.31-.66a1.86,1.86,0,0,0-1.38,1.5,1.68,1.68,0,0,0,.42,1.55A3.67,3.67,0,0,0,233.22,523.62Z"/><path class="cls-29" d="M238.86,514.59a3.21,3.21,0,0,1-1.45,2.21,3.67,3.67,0,0,1-2.77.4l-.23,0a4.47,4.47,0,0,1-1.84-.8,3.29,3.29,0,0,1-1.1-1.42,3,3,0,0,1-.16-1.7,2.78,2.78,0,0,1,1.38-2,4.11,4.11,0,0,1,2.82-.24l.52.1L235,516a2.62,2.62,0,0,0,1.86-.27,2.06,2.06,0,0,0,1-1.4,2.24,2.24,0,0,0-.05-1.16,2.8,2.8,0,0,0-.55-.94l.74-.64A3.06,3.06,0,0,1,238.86,514.59Zm-6.53-1.15a1.68,1.68,0,0,0,.3,1.37,2.68,2.68,0,0,0,1.4.94l.73-3.63-.09,0a2.45,2.45,0,0,0-1.57.21A1.61,1.61,0,0,0,232.33,513.44Z"/><path class="cls-29" d="M232.57,507.7l.92.14a2.68,2.68,0,0,1-.61-2.38q.47-2.29,3.06-1.8l4.79,1-.25,1.24-4.8-1a1.68,1.68,0,0,0-1.23.13,1.43,1.43,0,0,0-.59,1,1.78,1.78,0,0,0,.1,1.12,2.24,2.24,0,0,0,.71.88l5.16,1-.25,1.24-7.25-1.46Z"/><path class="cls-29" d="M232.44,499.25l1.76.35.27-1.35,1,.19-.28,1.36,4.51.9a1,1,0,0,0,.69-.05.77.77,0,0,0,.34-.57,3.24,3.24,0,0,0,0-.61l1,.2a3.89,3.89,0,0,1-.06,1,1.53,1.53,0,0,1-.76,1.15,2.18,2.18,0,0,1-1.51.14l-4.5-.9-.26,1.32-1-.2.27-1.32-1.76-.35Z"/><path class="cls-29" d="M242.75,495.28a3.24,3.24,0,0,1-1.45,2.2,3.7,3.7,0,0,1-2.78.41l-.22-.05a4.51,4.51,0,0,1-1.85-.8,3.26,3.26,0,0,1-1.09-1.42,2.93,2.93,0,0,1-.16-1.7,2.77,2.77,0,0,1,1.37-2,4.13,4.13,0,0,1,2.83-.25l.51.1-1,4.92a2.64,2.64,0,0,0,1.85-.28,2,2,0,0,0,1-1.39,2.28,2.28,0,0,0,0-1.17,2.9,2.9,0,0,0-.55-.94l.74-.64A3.13,3.13,0,0,1,242.75,495.28Zm-6.53-1.16a1.71,1.71,0,0,0,.29,1.37,2.69,2.69,0,0,0,1.41.94l.73-3.63-.1,0A2.42,2.42,0,0,0,237,493,1.58,1.58,0,0,0,236.22,494.12Z"/><path class="cls-29" d="M472.72,403.86,468.51,401l-3,4.44-1.32-.89,6.73-10,6.22,4.17-.73,1.09-4.89-3.29L469.23,400l4.21,2.83Z"/><path class="cls-29" d="M474.68,411.8a3.93,3.93,0,0,1-1.8-2.65,4.46,4.46,0,0,1,.83-3.3l.16-.24a5.46,5.46,0,0,1,1.76-1.7,3.9,3.9,0,0,1,2.1-.56,3.56,3.56,0,0,1,2,.61,3.36,3.36,0,0,1,1.62,2.47,5.06,5.06,0,0,1-1,3.29l-.35.53-5.06-3.39a3.21,3.21,0,0,0-.55,2.21,2.46,2.46,0,0,0,1.12,1.74,2.72,2.72,0,0,0,1.32.49,3.76,3.76,0,0,0,1.32-.18l.37,1.13A3.77,3.77,0,0,1,474.68,411.8ZM479,405a2.05,2.05,0,0,0-1.68-.31,3.26,3.26,0,0,0-1.7,1.14l3.73,2.51.07-.1a2.94,2.94,0,0,0,.49-1.86A1.94,1.94,0,0,0,479,405Z"/><path class="cls-29" d="M485.35,408l-.58,1a3.27,3.27,0,0,1,3,.43c1.58,1.05,1.78,2.48.6,4.27L485,418.53l-1.27-.85,3.31-4.94a2.09,2.09,0,0,0,.43-1.44,1.78,1.78,0,0,0-.87-1.14,2.2,2.2,0,0,0-1.31-.4,2.68,2.68,0,0,0-1.31.38l-3.57,5.31-1.28-.85,5-7.46Z"/><path class="cls-29" d="M489.15,415.8a5.27,5.27,0,0,1,1.75-1.68,3.81,3.81,0,0,1,4.18.15,3.8,3.8,0,0,1,1.76,2.71,4.94,4.94,0,0,1-.94,3.44l-.06.09a5.48,5.48,0,0,1-1.73,1.67,3.89,3.89,0,0,1-2.1.55,4,4,0,0,1-2.1-.71,3.74,3.74,0,0,1-1.75-2.71,4.82,4.82,0,0,1,.93-3.42Zm1.18,1a3.8,3.8,0,0,0-.76,2.38,2.34,2.34,0,0,0,3.09,2.06,4.2,4.2,0,0,0,2-1.75,3.81,3.81,0,0,0,.75-2.38,2.32,2.32,0,0,0-3.06-2.07A4.15,4.15,0,0,0,490.33,416.81Zm7.34-5.14,1.54,1-3.21.78-1-.69Z"/><path class="cls-29" d="M496.38,426.16l-1.28-.86,7.11-10.58,1.27.85Z"/><path class="cls-29" d="M499.8,428.46l-1.27-.86,5-7.46,1.28.86Zm5-10.36a.9.9,0,0,1,.54-.4.86.86,0,0,1,.7.16.87.87,0,0,1,.42.59.93.93,0,0,1-.15.66,1,1,0,0,1-.54.39.9.9,0,0,1-.71-.18.81.81,0,0,1-.26-1.22Z"/><path class="cls-29" d="M505.44,430.93a2.31,2.31,0,0,0,1.47.39,1.75,1.75,0,0,0,1.26-.66l1.21.81a2.76,2.76,0,0,1-1.26.92,3.49,3.49,0,0,1-1.71.2,4,4,0,0,1-3.41-3.26,4.92,4.92,0,0,1,1-3.39l.14-.21a5.5,5.5,0,0,1,1.7-1.67,3.66,3.66,0,0,1,2-.55,3.92,3.92,0,0,1,2.08.72,3.62,3.62,0,0,1,1.59,2.15,3.28,3.28,0,0,1-.43,2.55l-1.2-.81a2.16,2.16,0,0,0,.25-1.56,2.06,2.06,0,0,0-.91-1.28,2.12,2.12,0,0,0-2-.31,4,4,0,0,0-1.9,1.66l-.16.24a3.94,3.94,0,0,0-.8,2.35A2.14,2.14,0,0,0,505.44,430.93Z"/><path class="cls-29" d="M511.46,430.77a5.12,5.12,0,0,1,1.75-1.69,3.84,3.84,0,0,1,2.1-.54,3.9,3.9,0,0,1,2.08.7,3.77,3.77,0,0,1,1.75,2.71,4.81,4.81,0,0,1-.94,3.43l-.06.09a5.29,5.29,0,0,1-1.72,1.68,3.79,3.79,0,0,1-2.1.54,4,4,0,0,1-2.11-.71,3.8,3.8,0,0,1-1.75-2.7,4.93,4.93,0,0,1,.93-3.43Zm1.17,1a3.91,3.91,0,0,0-.76,2.38,2.24,2.24,0,0,0,1,1.78,2.17,2.17,0,0,0,2.06.27,4.18,4.18,0,0,0,2-1.74,3.83,3.83,0,0,0,.75-2.38,2.22,2.22,0,0,0-1-1.8,2.18,2.18,0,0,0-2-.28A4.19,4.19,0,0,0,512.63,431.78Z"/><path class="cls-29" d="M412,470.82a4.44,4.44,0,0,1-3.24.48,4.61,4.61,0,0,1-2.63-2,4.24,4.24,0,0,1-.65-3.7,6.18,6.18,0,0,1,2.68-3.37l1-.65a6.89,6.89,0,0,1,2.8-1.16,4.48,4.48,0,0,1,2.58.32,4.72,4.72,0,0,1,2,1.73,4.36,4.36,0,0,1,.83,3.16,4.5,4.5,0,0,1-1.71,2.79l-.89-1.33a3.44,3.44,0,0,0,1.23-1.92,2.75,2.75,0,0,0-.54-2,2.87,2.87,0,0,0-2.28-1.35,5.15,5.15,0,0,0-3.15,1.08l-1,.65a5.38,5.38,0,0,0-2.14,2.44,2.64,2.64,0,0,0,.33,2.55,3.06,3.06,0,0,0,1.63,1.36,3.4,3.4,0,0,0,2.27-.4Z"/><path class="cls-29" d="M413,479.15a3.31,3.31,0,0,1,.67-.71,3.41,3.41,0,0,1-2.36-1.49,3.2,3.2,0,0,1-.59-2.23,2.42,2.42,0,0,1,1.1-1.77,2.54,2.54,0,0,1,2.4-.33,5.05,5.05,0,0,1,2.33,2.05l.83,1.24.59-.4a1.72,1.72,0,0,0,.79-1.11,2,2,0,0,0-.4-1.45,2.29,2.29,0,0,0-1.11-.91,1.24,1.24,0,0,0-1.15.1l-.86-1.28a2.12,2.12,0,0,1,1.34-.33,3.33,3.33,0,0,1,1.55.52,4.46,4.46,0,0,1,1.31,1.29,3.47,3.47,0,0,1,.71,2.45,2.81,2.81,0,0,1-1.26,1.95l-3.42,2.31a5.13,5.13,0,0,0-1.46,1.36l-.11.08Zm-.45-2.76a2.73,2.73,0,0,0,1.07.92,2.27,2.27,0,0,0,1.33.24l1.53-1-.67-1q-1.59-2.34-3-1.42a1.43,1.43,0,0,0-.67,1A1.91,1.91,0,0,0,412.53,476.39Zm10.39-5.31,1,1.55-3.27-.48-.69-1Z"/><path class="cls-29" d="M418.9,486.33a3.26,3.26,0,0,1-2.35-1.59,2.81,2.81,0,0,1-.53-2.28,3.58,3.58,0,0,1,1.62-2l4.85-3.27.86,1.27-4.81,3.25c-1.13.76-1.39,1.6-.77,2.52a2.33,2.33,0,0,0,2.4,1.21l5.41-3.66.86,1.27-7.44,5-.82-1.21Z"/><path class="cls-29" d="M425.21,493a1.15,1.15,0,0,0,.54-.93,4.78,4.78,0,0,0-.42-1.69,7.45,7.45,0,0,1-.54-1.86,2.51,2.51,0,0,1,.12-1.31,2,2,0,0,1,.76-.91,2.34,2.34,0,0,1,2.07-.27,4.19,4.19,0,0,1,2.7,4A2.51,2.51,0,0,1,429.3,492l-.86-1.28a1.37,1.37,0,0,0,.6-1.05,2,2,0,0,0-.37-1.37,2.14,2.14,0,0,0-1-.89,1.17,1.17,0,0,0-1.06.14,1,1,0,0,0-.44.84,5,5,0,0,0,.44,1.62,8.62,8.62,0,0,1,.53,1.89,2.66,2.66,0,0,1-.12,1.35,2.1,2.1,0,0,1-.82,1,2.31,2.31,0,0,1-2.14.29,4.08,4.08,0,0,1-2-1.67,4.56,4.56,0,0,1-.75-1.8,3,3,0,0,1,.16-1.67,2.58,2.58,0,0,1,1-1.22l.86,1.28a1.61,1.61,0,0,0-.67,1.19,2.87,2.87,0,0,0,1.55,2.48A1.09,1.09,0,0,0,425.21,493Z"/><path class="cls-29" d="M435.62,492.76l-1.8,1.21.94,1.39-1,.67-.93-1.39-4.63,3.12a1.19,1.19,0,0,0-.54.63.94.94,0,0,0,.2.79,3.52,3.52,0,0,0,.49.55l-1,.69a4.37,4.37,0,0,1-.8-.88,1.9,1.9,0,0,1-.35-1.64,2.7,2.7,0,0,1,1.17-1.42l4.62-3.12-.92-1.35,1-.67.91,1.36,1.8-1.22Z"/><path class="cls-29" d="M429.24,503.25l-.86-1.28,7.45-5,.86,1.27Zm8.49-7.74a.92.92,0,0,1,.65-.16.87.87,0,0,1,.6.42.85.85,0,0,1,.16.7.86.86,0,0,1-.39.55.91.91,0,0,1-.65.16,1.08,1.08,0,0,1-.76-1.13A1,1,0,0,1,437.73,495.51Z"/><path class="cls-29" d="M433.54,507.67a2.17,2.17,0,0,0,1.22.91,1.73,1.73,0,0,0,1.41-.13l.81,1.21a2.81,2.81,0,0,1-1.51.38,3.54,3.54,0,0,1-1.65-.46,3.74,3.74,0,0,1-1.32-1.21,3.67,3.67,0,0,1-.61-3.1,4.85,4.85,0,0,1,2.17-2.77l.21-.15a5.44,5.44,0,0,1,2.2-.9,3.6,3.6,0,0,1,2.09.26,3.87,3.87,0,0,1,1.66,1.45,3.58,3.58,0,0,1,.65,2.58,3.18,3.18,0,0,1-1.35,2.2l-.81-1.2a2.11,2.11,0,0,0,.82-1.35,2,2,0,0,0-.36-1.53,2.14,2.14,0,0,0-1.71-1,4,4,0,0,0-2.38.83l-.24.16a3.82,3.82,0,0,0-1.62,1.87A2.14,2.14,0,0,0,433.54,507.67Z"/><path class="cls-29" d="M439.17,509.78a5.37,5.37,0,0,1,2.26-.9,4,4,0,0,1,4.42,4.89,4.89,4.89,0,0,1-2.17,2.83l-.09.06a5.31,5.31,0,0,1-2.23.9,3.83,3.83,0,0,1-2.15-.29,4,4,0,0,1-1.68-1.45,3.77,3.77,0,0,1-.6-3.16,4.84,4.84,0,0,1,2.15-2.82Zm.71,1.38a3.88,3.88,0,0,0-1.6,1.92,2.35,2.35,0,0,0,2.09,3.07,4.16,4.16,0,0,0,2.51-.87,3.85,3.85,0,0,0,1.6-1.92,2.23,2.23,0,0,0-.29-2.06,2.19,2.19,0,0,0-1.77-1A4.15,4.15,0,0,0,439.88,511.16Z"/><path class="cls-29" d="M520.81,236.7l-5,1-.52,3.32-1.62.3L516,228.54l1.37-.26,6.8,11-1.61.3Zm-4.75-.42,4-.77L517,230.34Z"/><path class="cls-29" d="M528.84,237.29a2.27,2.27,0,0,0,1.31-.76,1.77,1.77,0,0,0,.44-1.35l1.43-.27a2.81,2.81,0,0,1-.25,1.54,3.45,3.45,0,0,1-1.08,1.34,3.85,3.85,0,0,1-1.62.73,3.7,3.7,0,0,1-3.1-.66,4.93,4.93,0,0,1-1.69-3.09l0-.25a5.43,5.43,0,0,1,0-2.38,3.67,3.67,0,0,1,1.06-1.82,4,4,0,0,1,2-.95,3.6,3.6,0,0,1,2.64.42,3.24,3.24,0,0,1,1.48,2.11l-1.42.27a2.14,2.14,0,0,0-.92-1.28,2,2,0,0,0-1.54-.28,2.14,2.14,0,0,0-1.63,1.16,4,4,0,0,0-.17,2.52l0,.28a3.87,3.87,0,0,0,1.07,2.23A2.21,2.21,0,0,0,528.84,237.29Z"/><path class="cls-29" d="M537.08,229.08a5.26,5.26,0,0,0-.75.09,2,2,0,0,0-1.78,1.64l1.2,6.27-1.51.28-1.68-8.82,1.47-.28.22,1a2.39,2.39,0,0,1,1.87-1.59,1.6,1.6,0,0,1,.69,0Z"/><path class="cls-29" d="M543.45,235.78a3.94,3.94,0,0,1-3.15-.62,4.5,4.5,0,0,1-1.72-2.94l-.05-.28a5.4,5.4,0,0,1,.05-2.44,4,4,0,0,1,1.1-1.88,3.55,3.55,0,0,1,1.84-1,3.37,3.37,0,0,1,2.89.62,5,5,0,0,1,1.57,3.06l.12.63-6,1.14a3.18,3.18,0,0,0,1.17,2,2.4,2.4,0,0,0,2,.45,2.65,2.65,0,0,0,1.29-.58,3.48,3.48,0,0,0,.8-1l1.06.54A3.76,3.76,0,0,1,543.45,235.78Zm-1.69-7.87a2,2,0,0,0-1.41,1,3.24,3.24,0,0,0-.41,2l4.42-.84,0-.11a2.94,2.94,0,0,0-1-1.67A1.93,1.93,0,0,0,541.76,227.91Z"/><path class="cls-29" d="M509.17,329.46a4.51,4.51,0,0,1-1.95,2.64,4.65,4.65,0,0,1-3.31.42,4.26,4.26,0,0,1-3.08-2.16,6.21,6.21,0,0,1-.49-4.28l.22-1.14a6.92,6.92,0,0,1,1.16-2.79,4.41,4.41,0,0,1,2-1.61,4.77,4.77,0,0,1,2.64-.19,4.39,4.39,0,0,1,2.83,1.64,4.5,4.5,0,0,1,.77,3.18l-1.58-.3a3.45,3.45,0,0,0-.48-2.23,2.74,2.74,0,0,0-1.78-1,2.87,2.87,0,0,0-2.57.66,5.18,5.18,0,0,0-1.46,3l-.22,1.15a5.32,5.32,0,0,0,.21,3.23,2.65,2.65,0,0,0,2,1.58,3,3,0,0,0,2.11-.21,3.33,3.33,0,0,0,1.33-1.88Z"/><path class="cls-29" d="M516.05,327a4.53,4.53,0,0,0-.73-.2,2,2,0,0,0-2.25.87l-1.21,6.26-1.51-.29,1.7-8.82,1.47.28-.17,1a2.4,2.4,0,0,1,2.33-.78,1.49,1.49,0,0,1,.64.25Z"/><path class="cls-29" d="M519.47,335.52a3.89,3.89,0,0,1-2.69-1.74,4.46,4.46,0,0,1-.52-3.37l0-.28a5.47,5.47,0,0,1,1-2.24,4,4,0,0,1,1.72-1.35,3.55,3.55,0,0,1,2.06-.2A3.36,3.36,0,0,1,523.5,328a5,5,0,0,1,.33,3.42l-.13.63-6-1.15a3.13,3.13,0,0,0,.36,2.25,2.42,2.42,0,0,0,1.7,1.16,2.55,2.55,0,0,0,1.41-.06,3.52,3.52,0,0,0,1.14-.68l.78.9A3.79,3.79,0,0,1,519.47,335.52Zm1.33-7.94a2,2,0,0,0-1.66.37,3.23,3.23,0,0,0-1.12,1.71l4.42.85,0-.11a2.93,2.93,0,0,0-.28-1.9A1.94,1.94,0,0,0,520.8,327.58Z"/><path class="cls-29" d="M525.15,331.79a5.41,5.41,0,0,1,1-2.24,3.82,3.82,0,0,1,3.91-1.48,3.76,3.76,0,0,1,2.67,1.81,4.92,4.92,0,0,1,.48,3.53l0,.1a5.29,5.29,0,0,1-.93,2.22,3.81,3.81,0,0,1-1.72,1.32,4,4,0,0,1-2.22.17,3.79,3.79,0,0,1-2.66-1.81,4.85,4.85,0,0,1-.48-3.52Zm1.48.47a3.84,3.84,0,0,0,.23,2.49,2.36,2.36,0,0,0,3.65.69,4.21,4.21,0,0,0,1.16-2.4,3.83,3.83,0,0,0-.23-2.48,2.23,2.23,0,0,0-1.66-1.25,2.17,2.17,0,0,0-2,.54A4.15,4.15,0,0,0,526.63,332.26Z"/><path class="cls-29" d="M539.8,336.84a1.12,1.12,0,0,0-.28-1,4.55,4.55,0,0,0-1.49-.89,8.19,8.19,0,0,1-1.71-.93,2.63,2.63,0,0,1-.83-1,2,2,0,0,1-.11-1.19,2.31,2.31,0,0,1,1.27-1.65,3.57,3.57,0,0,1,2.49-.3,3.7,3.7,0,0,1,2.28,1.24,2.51,2.51,0,0,1,.56,2.16l-1.52-.29a1.4,1.4,0,0,0-.32-1.17,2,2,0,0,0-1.24-.7,2.08,2.08,0,0,0-1.36.11,1.15,1.15,0,0,0-.64.84.94.94,0,0,0,.27.91,5.3,5.3,0,0,0,1.46.83,7.76,7.76,0,0,1,1.71,1,2.63,2.63,0,0,1,.88,1,2.15,2.15,0,0,1,.11,1.27,2.28,2.28,0,0,1-1.31,1.71,4,4,0,0,1-2.59.24,4.54,4.54,0,0,1-1.81-.73,3.17,3.17,0,0,1-1.07-1.3,2.57,2.57,0,0,1-.18-1.54l1.51.29a1.59,1.59,0,0,0,.37,1.32,2.39,2.39,0,0,0,1.41.73,2.51,2.51,0,0,0,1.44-.08A1.09,1.09,0,0,0,539.8,336.84Z"/><path class="cls-29" d="M543.29,335.28a5.17,5.17,0,0,1,1-2.23,3.8,3.8,0,0,1,1.72-1.32,3.91,3.91,0,0,1,2.18-.17,3.84,3.84,0,0,1,2.68,1.81,4.87,4.87,0,0,1,.47,3.53l0,.11a5.43,5.43,0,0,1-.94,2.22,3.83,3.83,0,0,1-1.72,1.32,4,4,0,0,1-2.21.16,3.76,3.76,0,0,1-2.67-1.81,4.82,4.82,0,0,1-.47-3.51Zm1.48.47a3.84,3.84,0,0,0,.22,2.49,2.23,2.23,0,0,0,1.65,1.24,2.18,2.18,0,0,0,2-.55,4.18,4.18,0,0,0,1.17-2.39,3.81,3.81,0,0,0-.24-2.48,2.33,2.33,0,0,0-3.63-.72A4.18,4.18,0,0,0,544.77,335.75Z"/><path class="cls-29" d="M554,342l-1.51-.29,2.42-12.52,1.51.29Z"/><path class="cls-31" d="M397.46,97.38l-2.17,3.22,8.95,6-.89,1.31-9-6-2.16,3.22-1.08-.73,5.21-7.76Z"/><path class="cls-31" d="M409.85,98.27a3.19,3.19,0,0,1-.91-.34,3.42,3.42,0,0,1-.5,2.74,3.21,3.21,0,0,1-1.84,1.39,2.45,2.45,0,0,1-2.06-.36,2.54,2.54,0,0,1-1.21-2.1,5,5,0,0,1,1-2.92l.83-1.24-.58-.4a1.73,1.73,0,0,0-1.34-.31,1.9,1.9,0,0,0-1.18.91,2.22,2.22,0,0,0-.43,1.37,1.23,1.23,0,0,0,.52,1l-.86,1.28a2.16,2.16,0,0,1-.81-1.12,3.28,3.28,0,0,1-.1-1.63,4.45,4.45,0,0,1,.7-1.7,3.54,3.54,0,0,1,2-1.58,2.77,2.77,0,0,1,2.28.43L408.83,96a4.86,4.86,0,0,0,1.8.83l.11.08Zm-2.4,1.47a2.76,2.76,0,0,0,.46-1.35,2.23,2.23,0,0,0-.29-1.32l-1.53-1-.67,1c-1.05,1.56-1.11,2.65-.2,3.27a1.45,1.45,0,0,0,1.21.23A1.91,1.91,0,0,0,407.45,99.74Z"/><path class="cls-31" d="M408,87.35a4.87,4.87,0,0,0-.47.59,2,2,0,0,0-.08,2.42l5.3,3.56-.86,1.27-7.45-5,.83-1.24.87.56a2.39,2.39,0,0,1,.2-2.45,1.64,1.64,0,0,1,.47-.5Z"/><path class="cls-31" d="M407.25,82.14l1.81,1.21L410,82l1,.66L410,84l4.63,3.11a1.29,1.29,0,0,0,.8.27,1,1,0,0,0,.65-.49,2.89,2.89,0,0,0,.32-.66l1,.69A4.26,4.26,0,0,1,417,88a1.88,1.88,0,0,1-1.38.94,2.63,2.63,0,0,1-1.76-.55l-4.62-3.11-.92,1.36-1-.66.91-1.36-1.8-1.21Z"/><path class="cls-31" d="M410.34,74.69l1-1.54.79,3.21-.7,1Zm11.21,6.18a3.67,3.67,0,0,1-.91-.35,3.42,3.42,0,0,1-.5,2.74,3.21,3.21,0,0,1-1.84,1.39,2.45,2.45,0,0,1-2.06-.36,2.54,2.54,0,0,1-1.21-2.1,5,5,0,0,1,1-2.92l.83-1.24-.58-.39a1.72,1.72,0,0,0-1.33-.32,1.92,1.92,0,0,0-1.19.91,2.25,2.25,0,0,0-.43,1.38,1.24,1.24,0,0,0,.53,1L413,81.91a2.08,2.08,0,0,1-.82-1.12,3.28,3.28,0,0,1-.1-1.63,4.35,4.35,0,0,1,.7-1.69,3.59,3.59,0,0,1,2-1.59,2.84,2.84,0,0,1,2.29.43l3.43,2.31a5,5,0,0,0,1.81.84l.11.07Zm-2.4,1.46a2.76,2.76,0,0,0,.46-1.35,2.34,2.34,0,0,0-.28-1.32l-1.53-1-.67,1c-1.05,1.57-1.12,2.65-.21,3.27a1.42,1.42,0,0,0,1.21.23A1.86,1.86,0,0,0,419.15,82.33Z"/><path class="cls-31" d="M417,71.58l1,.58a3.27,3.27,0,0,1,.43-3c1.06-1.58,2.48-1.77,4.27-.59l4.92,3.31-.85,1.27-4.93-3.31a2.05,2.05,0,0,0-1.44-.43,1.76,1.76,0,0,0-1.15.86,2.29,2.29,0,0,0-.4,1.31,2.75,2.75,0,0,0,.38,1.32l5.31,3.57-.86,1.27-7.45-5Z"/><path class="cls-31" d="M419.42,63.67a.92.92,0,0,1-.4-.55,1,1,0,0,1,.76-1.12.91.91,0,0,1,.65.16.87.87,0,0,1,.39.54.88.88,0,0,1-.18.7.84.84,0,0,1-.58.42A.88.88,0,0,1,419.42,63.67Zm10.35,5-.85,1.27-7.46-5,.86-1.27Z"/><path class="cls-31" d="M432.25,63a2.22,2.22,0,0,0,.39-1.47,1.79,1.79,0,0,0-.66-1.26l.81-1.2a2.78,2.78,0,0,1,.93,1.26,3.49,3.49,0,0,1,.19,1.71,4,4,0,0,1-3.26,3.4,4.87,4.87,0,0,1-3.39-1l-.21-.14a5.5,5.5,0,0,1-1.67-1.7,3.67,3.67,0,0,1-.54-2,3.9,3.9,0,0,1,.72-2.09,3.58,3.58,0,0,1,2.15-1.57,3.21,3.21,0,0,1,2.54.42l-.81,1.21a2.1,2.1,0,0,0-1.55-.26,2.12,2.12,0,0,0-1.29.91,2.14,2.14,0,0,0-.31,2,4,4,0,0,0,1.66,1.9l.24.16a3.88,3.88,0,0,0,2.35.8A2.14,2.14,0,0,0,432.25,63Z"/><path class="cls-31" d="M432.09,57a5.23,5.23,0,0,1-1.69-1.76,3.82,3.82,0,0,1-.54-2.1,3.92,3.92,0,0,1,.7-2.07,3.8,3.8,0,0,1,2.71-1.76,4.89,4.89,0,0,1,3.44,1l.09.06A5.28,5.28,0,0,1,438.47,52a3.83,3.83,0,0,1,.55,2.09,4,4,0,0,1-.72,2.11A3.8,3.8,0,0,1,435.6,58a4.89,4.89,0,0,1-3.43-.94Zm1-1.18a3.78,3.78,0,0,0,2.37.76,2.35,2.35,0,0,0,2.07-3.09,4.2,4.2,0,0,0-1.75-2,3.89,3.89,0,0,0-2.38-.76,2.24,2.24,0,0,0-1.8,1,2.22,2.22,0,0,0-.27,2A4.19,4.19,0,0,0,433.1,55.81Z"/><path class="cls-31" d="M477,162.79l-6.49-10.2,2.88-1.83a5.45,5.45,0,0,1,2.73-.91,4.69,4.69,0,0,1,2.64.67,6.42,6.42,0,0,1,2.15,2.13l.42.66a6.49,6.49,0,0,1,1,2.88,4.67,4.67,0,0,1-.53,2.68,5.84,5.84,0,0,1-2,2.12Zm-4.44-10,5.08,8,1.42-.9a3.61,3.61,0,0,0,1.8-2.5,4.7,4.7,0,0,0-.88-3.31l-.38-.59a4.83,4.83,0,0,0-2.54-2.19,3.4,3.4,0,0,0-2.93.5Z"/><path class="cls-31" d="M490.41,153.22a3.25,3.25,0,0,1-1.66,2.3,2.77,2.77,0,0,1-2.29.47,3.63,3.63,0,0,1-2-1.67l-3.13-4.93,1.29-.83,3.11,4.9c.74,1.15,1.57,1.42,2.5.83a2.3,2.3,0,0,0,1.27-2.36l-3.5-5.52,1.29-.82,4.82,7.58-1.23.78Z"/><path class="cls-31" d="M493.7,143.17a4,4,0,0,0-.67.36,2,2,0,0,0-1,2.18l3.42,5.38-1.3.83-4.81-7.58,1.26-.8.57.86a2.42,2.42,0,0,1,1.17-2.17,1.42,1.42,0,0,1,.63-.26Z"/><path class="cls-31" d="M496,145.28a5.38,5.38,0,0,1-.84-2.28,3.88,3.88,0,0,1,.35-2.15,4,4,0,0,1,1.47-1.62,3.82,3.82,0,0,1,3.19-.52A4.88,4.88,0,0,1,503,141l.06.09a5.31,5.31,0,0,1,.84,2.25,3.79,3.79,0,0,1-.35,2.14,3.9,3.9,0,0,1-1.49,1.64,3.76,3.76,0,0,1-3.18.52,4.86,4.86,0,0,1-2.76-2.23Zm1.4-.67a3.87,3.87,0,0,0,1.87,1.65,2.35,2.35,0,0,0,3.13-2,4.19,4.19,0,0,0-.8-2.53,3.88,3.88,0,0,0-1.87-1.65,2.24,2.24,0,0,0-2.07.23,2.2,2.2,0,0,0-1.06,1.75A4.2,4.2,0,0,0,497.43,144.61Z"/><path class="cls-31" d="M234.59,18.07,230,19l-.31-1.56,11.85-2.39.88,4.37a4.48,4.48,0,0,1-.38,3.24,3.46,3.46,0,0,1-2.41,1.64,3.36,3.36,0,0,1-2.87-.55,4.65,4.65,0,0,1-1.56-2.9Zm1.28-.25.56,2.8a2.86,2.86,0,0,0,1,1.8,2.19,2.19,0,0,0,1.84.33,2.33,2.33,0,0,0,1.57-1,2.72,2.72,0,0,0,.29-2l-.59-2.89Z"/><path class="cls-31" d="M232,29.35l-.31-1.51,8.81-1.78.3,1.51Zm10.81-3.88a.94.94,0,0,1,.66.1.87.87,0,0,1,.39.61.85.85,0,0,1-.12.72.9.9,0,0,1-.57.35.88.88,0,0,1-.66-.1.92.92,0,0,1-.38-.62.87.87,0,0,1,.11-.71A.94.94,0,0,1,242.85,25.47Z"/><path class="cls-31" d="M234.3,35.08a2.29,2.29,0,0,0,.77,1.31,1.81,1.81,0,0,0,1.36.42l.29,1.42a2.83,2.83,0,0,1-1.55-.23,3.52,3.52,0,0,1-1.35-1.06,3.76,3.76,0,0,1-.75-1.62,3.69,3.69,0,0,1,.63-3.1,4.85,4.85,0,0,1,3.07-1.72l.25-.05a5.3,5.3,0,0,1,2.38,0,3.72,3.72,0,0,1,1.83,1,3.86,3.86,0,0,1,1,2,3.62,3.62,0,0,1-.39,2.65,3.27,3.27,0,0,1-2.09,1.51l-.29-1.43a2.15,2.15,0,0,0,1.28-.93,2.12,2.12,0,0,0,.26-1.55,2.17,2.17,0,0,0-1.19-1.61,3.93,3.93,0,0,0-2.51-.15L237,32a4,4,0,0,0-2.22,1.1A2.19,2.19,0,0,0,234.3,35.08Z"/><path class="cls-31" d="M235.38,45.92a3.08,3.08,0,0,1,.88-.4,3.43,3.43,0,0,1-1.59-2.29A3.13,3.13,0,0,1,235,41a2.42,2.42,0,0,1,1.7-1.21,2.54,2.54,0,0,1,2.35.61,5,5,0,0,1,1.35,2.79l.3,1.47.69-.14a1.72,1.72,0,0,0,1.16-.73,1.93,1.93,0,0,0,.19-1.48A2.22,2.22,0,0,0,242,41a1.21,1.21,0,0,0-1.09-.35l-.31-1.51a2.11,2.11,0,0,1,1.37.21,3.27,3.27,0,0,1,1.23,1.07,4.49,4.49,0,0,1,.71,1.69,3.59,3.59,0,0,1-.28,2.54A2.82,2.82,0,0,1,241.75,46l-4.06.81a5.13,5.13,0,0,0-1.86.7l-.13,0Zm.64-2.73a2.79,2.79,0,0,0,.64,1.27,2.36,2.36,0,0,0,1.14.73l1.8-.37-.24-1.18c-.37-1.84-1.09-2.66-2.17-2.44a1.41,1.41,0,0,0-1,.7A1.8,1.8,0,0,0,236,43.19Z"/><path class="cls-31" d="M245.2,49.18l-1.1.27a3.3,3.3,0,0,1,1.8,2.39q.57,2.79-2.58,3.45l-5.82,1.17L237.2,55,243,53.78a2.06,2.06,0,0,0,1.32-.72,1.77,1.77,0,0,0,.18-1.42,2.15,2.15,0,0,0-.65-1.21,2.72,2.72,0,0,0-1.2-.66L236.41,51l-.3-1.51,8.8-1.77Z"/><path class="cls-31" d="M249.31,58.58l-2.13.43.33,1.64-1.16.24L246,59.24l-5.47,1.1a1.33,1.33,0,0,0-.75.38.92.92,0,0,0-.11.81,3.17,3.17,0,0,0,.24.69l-1.22.25a4.6,4.6,0,0,1-.39-1.13,1.88,1.88,0,0,1,.3-1.64,2.69,2.69,0,0,1,1.63-.86l5.46-1.1-.32-1.61,1.16-.23.33,1.6,2.13-.43Z"/><path class="cls-31" d="M239.64,67.88a3.9,3.9,0,0,1,.59-3.15A4.44,4.44,0,0,1,243.14,63l.28,0a5.27,5.27,0,0,1,2.44,0A3.91,3.91,0,0,1,247.75,64a3.57,3.57,0,0,1,1,1.83,3.39,3.39,0,0,1-.59,2.9,5,5,0,0,1-3,1.6l-.63.13-1.2-6a3.19,3.19,0,0,0-1.95,1.18,2.43,2.43,0,0,0-.43,2,2.72,2.72,0,0,0,.6,1.29,3.38,3.38,0,0,0,1.06.79L242,70.86A3.74,3.74,0,0,1,239.64,67.88Zm7.85-1.78a2,2,0,0,0-1-1.39,3.19,3.19,0,0,0-2-.39l.89,4.41.11,0a2.85,2.85,0,0,0,1.65-1A1.92,1.92,0,0,0,247.49,66.1Z"/><path class="cls-31" d="M326.47,60.26l-.83,3.79,10.54,2.3-.34,1.55L325.3,65.6l-.82,3.79-1.27-.28,2-9.13Z"/><path class="cls-31" d="M325.62,54.92,326,53.1l1.91,2.69L327.66,57Zm12.7,1.61a3.28,3.28,0,0,1-1,0,3.42,3.42,0,0,1,.54,2.73,3.18,3.18,0,0,1-1.2,2,2.43,2.43,0,0,1-2,.43,2.53,2.53,0,0,1-1.9-1.51,5,5,0,0,1-.12-3.1l.31-1.46-.68-.15a1.78,1.78,0,0,0-1.36.2,2,2,0,0,0-.77,1.29,2.21,2.21,0,0,0,.11,1.43,1.22,1.22,0,0,0,.87.76l-.33,1.51a2.15,2.15,0,0,1-1.17-.75,3.19,3.19,0,0,1-.69-1.47,4.24,4.24,0,0,1,0-1.84,3.57,3.57,0,0,1,1.28-2.21,2.77,2.77,0,0,1,2.28-.43l4,.87a5,5,0,0,0,2,.12l.13,0Zm-1.69,2.24a2.75,2.75,0,0,0-.07-1.42,2.23,2.23,0,0,0-.75-1.12l-1.8-.39L333.75,57c-.4,1.84-.06,2.88,1,3.11a1.4,1.4,0,0,0,1.21-.23A1.89,1.89,0,0,0,336.63,58.77Z"/><path class="cls-31" d="M330.63,49.59l1.12.19a3.28,3.28,0,0,1-.7-2.9q.61-2.77,3.75-2.12L340.6,46l-.33,1.5-5.8-1.26a2,2,0,0,0-1.5.13,1.72,1.72,0,0,0-.74,1.22,2.19,2.19,0,0,0,.11,1.37,2.81,2.81,0,0,0,.83,1.08l6.25,1.36-.32,1.5L330.32,51Z"/><path class="cls-31" d="M330,41.33a1,1,0,0,1-.56-.36,1,1,0,0,1,.28-1.33,1,1,0,0,1,.67-.09.87.87,0,0,1,.56.36.9.9,0,0,1,.1.72.94.94,0,0,1-.39.61A.92.92,0,0,1,330,41.33Zm11.46.79-.33,1.5-8.77-1.91.32-1.5Z"/><path class="cls-31" d="M341.68,36a2.18,2.18,0,0,0-.18-1.51,1.78,1.78,0,0,0-1.07-.93l.31-1.42a2.87,2.87,0,0,1,1.32.84,3.56,3.56,0,0,1,.81,1.51,4,4,0,0,1,0,1.78,3.74,3.74,0,0,1-1.82,2.59,4.89,4.89,0,0,1-3.5.35l-.26-.06a5.4,5.4,0,0,1-2.17-1,3.63,3.63,0,0,1-1.26-1.68,4,4,0,0,1-.1-2.2A3.66,3.66,0,0,1,335.22,32a3.25,3.25,0,0,1,2.52-.54l-.31,1.42a2.11,2.11,0,0,0-1.54.34,2.08,2.08,0,0,0-.85,1.31,2.17,2.17,0,0,0,.43,2,4,4,0,0,0,2.25,1.14l.28.06a3.86,3.86,0,0,0,2.47-.11A2.18,2.18,0,0,0,341.68,36Z"/><path class="cls-31" d="M339.31,30.43a5.31,5.31,0,0,1-2.2-1,3.87,3.87,0,0,1-1.29-1.76,3.94,3.94,0,0,1-.11-2.19,3.82,3.82,0,0,1,1.87-2.63,4.94,4.94,0,0,1,3.55-.38l.1,0a5.25,5.25,0,0,1,2.19,1,3.74,3.74,0,0,1,1.28,1.75,4,4,0,0,1,.12,2.22A3.8,3.8,0,0,1,343,30.06a4.85,4.85,0,0,1-3.53.39Zm.51-1.47a3.8,3.8,0,0,0,2.49-.17,2.35,2.35,0,0,0,.78-3.63,4.18,4.18,0,0,0-2.36-1.22,3.8,3.8,0,0,0-2.49.18,2.33,2.33,0,0,0-.8,3.61A4.17,4.17,0,0,0,339.82,29Z"/><path class="cls-29" d="M56.46,131.87l-3.63-2.34-1.91,3,4.21,2.72-.58.9-5.31-3.43,5.39-8.36,5.26,3.39-.58.9-4.16-2.68-1.73,2.7L57,131Z"/><path class="cls-29" d="M57.44,133.5a4.32,4.32,0,0,1,2.17-1.89,2.6,2.6,0,0,1,2.35.31,2.57,2.57,0,0,1,1.26,1.87l.45-.6,1,.63-5.55,8.61L58,141.74l1.91-3a2.68,2.68,0,0,1-2.16-.42,2.54,2.54,0,0,1-1.23-2,4.48,4.48,0,0,1,.83-2.76Zm1,.8a3.39,3.39,0,0,0-.64,2,1.7,1.7,0,0,0,.83,1.39,1.9,1.9,0,0,0,2,.1l2-3a1.89,1.89,0,0,0-.91-1.74,1.73,1.73,0,0,0-1.62-.18A3.59,3.59,0,0,0,58.43,134.3Z"/><path class="cls-29" d="M66.58,143a2.7,2.7,0,0,1-2.29-.44A2.26,2.26,0,0,1,63.15,141a3,3,0,0,1,.57-2l2.61-4,1.06.69-2.59,4c-.6,1-.52,1.66.24,2.16a1.89,1.89,0,0,0,2.21.13l2.91-4.52,1.06.69-4,6.21-1-.65Z"/><path class="cls-29" d="M70,146.06l-1.07-.69,4-6.21,1.06.68Zm3.92-8.61a.73.73,0,0,1,.44-.33.71.71,0,0,1,.58.12.74.74,0,0,1,.36.48.75.75,0,0,1-.12.54.71.71,0,0,1-.44.33.75.75,0,0,1-.59-.13.72.72,0,0,1-.35-.47A.76.76,0,0,1,73.91,137.45Z"/><path class="cls-29" d="M72.84,147.9l-1.07-.69,5.69-8.82,1.07.68Z"/><path class="cls-29" d="M75.69,149.74l-1.06-.69,4-6.21,1.07.68Zm3.92-8.61a.76.76,0,0,1,.44-.33.71.71,0,0,1,.58.12.7.7,0,0,1,.36.48.75.75,0,0,1-.12.54.68.68,0,0,1-1,.2.7.7,0,0,1-.36-.48A.73.73,0,0,1,79.61,141.13Z"/><path class="cls-29" d="M84.63,151.2a4.41,4.41,0,0,1-2.13,1.87,2.5,2.5,0,0,1-2.31-.27,2.58,2.58,0,0,1-1.29-2l-.51.69-1-.63L83.1,142l1.06.69L82,146a2.54,2.54,0,0,1,2.29.35,2.5,2.5,0,0,1,1.23,2,4.55,4.55,0,0,1-.87,2.76Zm-1-.81a3.41,3.41,0,0,0,.66-1.94,1.66,1.66,0,0,0-.82-1.37,1.88,1.88,0,0,0-2.15,0l-1.73,2.69a1.92,1.92,0,0,0,.89,2,1.64,1.64,0,0,0,1.57.17A3.58,3.58,0,0,0,83.65,150.39Z"/><path class="cls-29" d="M90.41,151.78a3.33,3.33,0,0,0-.49-.38,1.68,1.68,0,0,0-2,0l-2.84,4.41L84,155.11l4-6.22,1,.67-.45.73a2,2,0,0,1,2,.12,1.23,1.23,0,0,1,.42.38Z"/><path class="cls-29" d="M91.6,160a2.65,2.65,0,0,1,.28-.75,2.86,2.86,0,0,1-2.27-.37,2.65,2.65,0,0,1-1.17-1.5,2,2,0,0,1,.26-1.69,2.1,2.1,0,0,1,1.71-1,4.17,4.17,0,0,1,2.42.8l1,.67.31-.49a1.42,1.42,0,0,0,.24-1.1,1.61,1.61,0,0,0-.77-1,1.79,1.79,0,0,0-1.14-.33,1,1,0,0,0-.83.45L90.61,153a1.75,1.75,0,0,1,.91-.69,2.71,2.71,0,0,1,1.34-.11,3.73,3.73,0,0,1,1.41.55,2.9,2.9,0,0,1,1.33,1.62,2.29,2.29,0,0,1-.32,1.89l-1.84,2.86a4.09,4.09,0,0,0-.66,1.5l-.06.1Zm-1.24-1.95a2.21,2.21,0,0,0,1.12.35,1.84,1.84,0,0,0,1.08-.25l.82-1.28-.83-.53c-1.3-.84-2.2-.88-2.69-.12a1.14,1.14,0,0,0-.17,1A1.48,1.48,0,0,0,90.36,158.05Z"/><path class="cls-29" d="M95.94,158.32a4.39,4.39,0,0,1,2.16-1.86,2.74,2.74,0,0,1,3.59,2.13l2.09-3.24,1.06.69-5.69,8.82-1-.63.38-.7a2.56,2.56,0,0,1-2.28-.36,2.51,2.51,0,0,1-1.19-2,4.43,4.43,0,0,1,.81-2.75Zm1,.81a3.19,3.19,0,0,0-.63,1.93,1.65,1.65,0,0,0,.82,1.38,1.84,1.84,0,0,0,2.06,0l1.84-2.85a1.87,1.87,0,0,0-.9-1.83,1.72,1.72,0,0,0-1.61-.18A3.6,3.6,0,0,0,96.93,159.13Z"/><path class="cls-29" d="M102.57,162.58a4.52,4.52,0,0,1,1.41-1.41,3.24,3.24,0,0,1,1.73-.48,3.18,3.18,0,0,1,1.72.55,3.15,3.15,0,0,1,1.49,2.2,4,4,0,0,1-.73,2.84l0,.08a4.32,4.32,0,0,1-1.39,1.4,3.11,3.11,0,0,1-1.72.49,3.29,3.29,0,0,1-1.75-.56,3.13,3.13,0,0,1-1.48-2.2,4,4,0,0,1,.72-2.83Zm1,.82a3.2,3.2,0,0,0-.59,2,1.94,1.94,0,0,0,2.58,1.65,3.47,3.47,0,0,0,1.62-1.47,3.17,3.17,0,0,0,.59-2,1.88,1.88,0,0,0-.89-1.47,1.8,1.8,0,0,0-1.67-.19A3.42,3.42,0,0,0,103.55,163.4Z"/><path class="cls-31" d="M137.8,67,141,71.75l-1.09.72-4-6.12,10.09-6.65L146.8,61Z"/><path class="cls-31" d="M141.65,75.18l-.84-1.28L148.3,69l.85,1.28Zm8.58-7.64a.85.85,0,0,1,.65-.15,1,1,0,0,1,.74,1.13.91.91,0,0,1-.39.54.83.83,0,0,1-1.23-.28.88.88,0,0,1-.17-.7A.93.93,0,0,1,150.23,67.54Z"/><path class="cls-31" d="M146.61,74.41a5.33,5.33,0,0,1,3.33-1,3.14,3.14,0,0,1,2.45,1.47,3.09,3.09,0,0,1,.44,2.78l.87-.49.78,1.18-7.32,4.82a3.65,3.65,0,0,1-2.87.65A3.83,3.83,0,0,1,141.93,82a4.58,4.58,0,0,1-.7-1.82,3.2,3.2,0,0,1,.17-1.81l1.2.16a3,3,0,0,0,.31,2.69,2.4,2.4,0,0,0,1.49,1.11,2.46,2.46,0,0,0,1.83-.46l.65-.42A3.2,3.2,0,0,1,144.6,80a3.09,3.09,0,0,1-.34-2.83A5.57,5.57,0,0,1,146.61,74.41Zm.71,1.39a4,4,0,0,0-1.65,1.83,2,2,0,0,0,.23,1.93,2.27,2.27,0,0,0,2.28,1.06l3.42-2.26a2.26,2.26,0,0,0-.09-2.47,2,2,0,0,0-1.69-1A4.37,4.37,0,0,0,147.32,75.8Z"/><path class="cls-31" d="M150.17,88.4a3.92,3.92,0,0,1-.64-3.14,4.47,4.47,0,0,1,2.05-2.73l.24-.15a5.36,5.36,0,0,1,2.27-.89,4,4,0,0,1,2.16.29,3.68,3.68,0,0,1,1.59,1.33,3.36,3.36,0,0,1,.53,2.91,5,5,0,0,1-2.22,2.63l-.54.35-3.34-5.08a3.21,3.21,0,0,0-1.37,1.83,2.46,2.46,0,0,0,.36,2,2.67,2.67,0,0,0,1,1,3.48,3.48,0,0,0,1.28.35l-.09,1.18A3.77,3.77,0,0,1,150.17,88.4Zm6.61-4.59a2,2,0,0,0-1.42-.93,3.18,3.18,0,0,0-2,.39L155.82,87l.1-.06a2.92,2.92,0,0,0,1.17-1.52A1.91,1.91,0,0,0,156.78,83.81Z"/><path class="cls-31" d="M162,92.17a5,5,0,0,0-.37-.67,2,2,0,0,0-2.2-1L154.06,94l-.84-1.28,7.5-5,.82,1.25-.85.59a2.4,2.4,0,0,1,2.18,1.13,1.5,1.5,0,0,1,.28.63Z"/><path class="cls-31" d="M159.89,94.53a5.36,5.36,0,0,1,2.26-.87,3.83,3.83,0,0,1,2.16.31A3.92,3.92,0,0,1,166,95.42a3.79,3.79,0,0,1,.57,3.17,4.88,4.88,0,0,1-2.2,2.81l-.08.06a5.32,5.32,0,0,1-2.25.87,3.78,3.78,0,0,1-2.14-.3,4,4,0,0,1-1.67-1.47,3.79,3.79,0,0,1-.57-3.17,4.85,4.85,0,0,1,2.19-2.8Zm.69,1.39a3.85,3.85,0,0,0-1.62,1.9,2.21,2.21,0,0,0,.27,2.05,2.18,2.18,0,0,0,1.79,1,4.2,4.2,0,0,0,2.52-.83,3.93,3.93,0,0,0,1.62-1.91,2.26,2.26,0,0,0-.26-2.06,2.21,2.21,0,0,0-1.77-1A4.14,4.14,0,0,0,160.58,95.92Z"/><path class="cls-29" d="M27.07,335.13a7.5,7.5,0,0,1-3.22-.8,2.77,2.77,0,0,1-1.36-1.87,2.9,2.9,0,0,1,.63-2.55,4.47,4.47,0,0,1,2.7-1.53,5,5,0,0,1,2.28,0,3.67,3.67,0,0,1,1.75,1,3.37,3.37,0,0,1,.91,1.7l-1.57.33a2.22,2.22,0,0,0-1-1.55,2.83,2.83,0,0,0-2-.2,2.86,2.86,0,0,0-1.69.89,1.73,1.73,0,0,0-.35,1.55,1.53,1.53,0,0,0,.87,1.09,6,6,0,0,0,2.29.47,9.79,9.79,0,0,1,2.5.43,3.51,3.51,0,0,1,1.48.9,3,3,0,0,1,.73,1.48A2.79,2.79,0,0,1,31.3,339a4.8,4.8,0,0,1-2.81,1.5,5.58,5.58,0,0,1-2.37,0,3.91,3.91,0,0,1-1.9-.93,3.11,3.11,0,0,1-1-1.72l1.56-.34A2.08,2.08,0,0,0,26,339.06a3.42,3.42,0,0,0,2.25.17,3.19,3.19,0,0,0,1.79-.91,1.69,1.69,0,0,0,.36-1.51,1.63,1.63,0,0,0-.89-1.21A7.2,7.2,0,0,0,27.07,335.13Z"/><path class="cls-29" d="M39.58,337.06a3.24,3.24,0,0,1-2.36,1.58,2.79,2.79,0,0,1-2.31-.36A3.67,3.67,0,0,1,33.65,336l-1.21-5.72,1.5-.32,1.21,5.68c.28,1.33,1,1.88,2.05,1.65a2.3,2.3,0,0,0,2-1.77l-1.36-6.39,1.5-.32,1.87,8.78-1.42.31Z"/><path class="cls-29" d="M48.93,336a3.22,3.22,0,0,1-.4-.88,3.46,3.46,0,0,1-2.27,1.62,3.21,3.21,0,0,1-2.29-.28,2.44,2.44,0,0,1-1.23-1.69,2.54,2.54,0,0,1,.59-2.35A5,5,0,0,1,46.1,331l1.46-.31-.14-.69a1.75,1.75,0,0,0-.74-1.15,1.92,1.92,0,0,0-1.49-.17,2.17,2.17,0,0,0-1.26.69,1.22,1.22,0,0,0-.34,1.1l-1.51.32a2.17,2.17,0,0,1,.2-1.37,3.27,3.27,0,0,1,1.06-1.24,4.26,4.26,0,0,1,1.68-.73,3.55,3.55,0,0,1,2.54.25,2.8,2.8,0,0,1,1.34,1.9l.86,4a4.94,4.94,0,0,0,.72,1.86l0,.13Zm-2.73-.62a2.63,2.63,0,0,0,1.26-.65,2.18,2.18,0,0,0,.71-1.14l-.38-1.81-1.18.26c-1.84.39-2.64,1.12-2.41,2.2a1.37,1.37,0,0,0,.7,1A1.83,1.83,0,0,0,46.2,335.36Z"/><path class="cls-29" d="M54.88,332.58l.74-7.21,1.54-.33-1.28,9.46-1.15.24-5-8.1,1.53-.33Z"/><path class="cls-29" d="M64.06,332.92a3.89,3.89,0,0,1-3.15-.55,4.43,4.43,0,0,1-1.79-2.9l-.06-.28a5.29,5.29,0,0,1,0-2.44,4,4,0,0,1,1.06-1.9,3.54,3.54,0,0,1,1.82-1,3.39,3.39,0,0,1,2.9.56,5,5,0,0,1,1.64,3l.13.63-6,1.27a3.19,3.19,0,0,0,1.21,1.93,2.42,2.42,0,0,0,2,.41,2.69,2.69,0,0,0,1.28-.61A3.54,3.54,0,0,0,66,330l1.06.52A3.74,3.74,0,0,1,64.06,332.92Zm-1.86-7.83a2.08,2.08,0,0,0-1.39,1,3.29,3.29,0,0,0-.36,2l4.4-.94,0-.11a2.93,2.93,0,0,0-1-1.64A1.92,1.92,0,0,0,62.2,325.09Z"/><path class="cls-29" d="M14.6,234.9,16.86,223l3.35.64a5.52,5.52,0,0,1,2.61,1.2,4.79,4.79,0,0,1,1.47,2.3,6.53,6.53,0,0,1,.1,3l-.14.76A6.59,6.59,0,0,1,23,233.78a4.73,4.73,0,0,1-2.22,1.59,5.88,5.88,0,0,1-2.94.16Zm3.58-10.29-1.77,9.31,1.64.31a3.64,3.64,0,0,0,3-.59,4.7,4.7,0,0,0,1.61-3l.14-.7a4.84,4.84,0,0,0-.36-3.32A3.41,3.41,0,0,0,20,225Z"/><path class="cls-29" d="M29,237.8a3.92,3.92,0,0,1-2.7-1.73,4.46,4.46,0,0,1-.52-3.37l.05-.27a5.33,5.33,0,0,1,.95-2.25,3.85,3.85,0,0,1,1.71-1.35,3.47,3.47,0,0,1,2.06-.21A3.35,3.35,0,0,1,33,230.26a5.06,5.06,0,0,1,.34,3.43l-.12.62-6-1.13a3.18,3.18,0,0,0,.36,2.25,2.45,2.45,0,0,0,1.7,1.16,2.67,2.67,0,0,0,1.42-.07,3.55,3.55,0,0,0,1.13-.68l.79.89A3.77,3.77,0,0,1,29,237.8Zm1.31-7.94a2,2,0,0,0-1.65.37A3.28,3.28,0,0,0,27.48,232l4.42.84,0-.12a2.89,2.89,0,0,0-.28-1.9A1.89,1.89,0,0,0,30.26,229.86Z"/><path class="cls-29" d="M35.8,238.94l-1.51-.29,2.38-12.53,1.51.29Z"/><path class="cls-29" d="M39.86,239.71l-1.51-.29L40,230.6l1.51.29Zm.5-11.47a.89.89,0,0,1,.34-.58.87.87,0,0,1,.71-.13.85.85,0,0,1,.73,1.05.84.84,0,0,1-.34.56.86.86,0,0,1-.72.12.87.87,0,0,1-.62-.37A.9.9,0,0,1,40.36,228.24Z"/><path class="cls-29" d="M46,239.77a2.19,2.19,0,0,0,1.51-.22,1.77,1.77,0,0,0,.9-1.09l1.43.27a2.79,2.79,0,0,1-.8,1.34,3.51,3.51,0,0,1-1.49.85,3.83,3.83,0,0,1-1.78.09,3.74,3.74,0,0,1-2.64-1.75,5,5,0,0,1-.44-3.5l0-.25a5.53,5.53,0,0,1,.91-2.2,3.68,3.68,0,0,1,1.66-1.3,3.91,3.91,0,0,1,2.19-.15,3.59,3.59,0,0,1,2.3,1.35,3.24,3.24,0,0,1,.61,2.51L49,235.45a2.09,2.09,0,0,0-.38-1.53,2,2,0,0,0-1.33-.82,2.13,2.13,0,0,0-1.94.48,3.94,3.94,0,0,0-1.09,2.28l0,.28a3.8,3.8,0,0,0,.18,2.47A2.13,2.13,0,0,0,46,239.77Z"/><path class="cls-29" d="M56.46,242.87a3.42,3.42,0,0,1,0-1,3.39,3.39,0,0,1-2.72.61,3.12,3.12,0,0,1-2-1.14,2.39,2.39,0,0,1-.48-2,2.52,2.52,0,0,1,1.45-1.94,5,5,0,0,1,3.1-.2l1.46.28.14-.7a1.72,1.72,0,0,0-.24-1.35,1.94,1.94,0,0,0-1.3-.73,2.26,2.26,0,0,0-1.43.15,1.24,1.24,0,0,0-.74.88l-1.51-.29a2.08,2.08,0,0,1,.71-1.18,3.28,3.28,0,0,1,1.45-.74,4.55,4.55,0,0,1,1.84,0,3.54,3.54,0,0,1,2.24,1.22,2.79,2.79,0,0,1,.5,2.27l-.77,4.06a4.86,4.86,0,0,0-.06,2l0,.13Zm-2.28-1.63a2.62,2.62,0,0,0,1.41-.11,2.25,2.25,0,0,0,1.11-.78l.34-1.81-1.18-.22c-1.85-.35-2.88,0-3.08,1.09a1.37,1.37,0,0,0,.26,1.2A1.79,1.79,0,0,0,54.18,241.24Z"/><path class="cls-29" d="M60.59,239a5.18,5.18,0,0,1,1.58-3.08,3.08,3.08,0,0,1,2.76-.76,3.13,3.13,0,0,1,2.25,1.53l.87-4.6,1.51.29-2.38,12.52-1.39-.26.11-1a3.16,3.16,0,0,1-2.73.63,3.09,3.09,0,0,1-2.26-1.74,5.25,5.25,0,0,1-.34-3.46Zm1.47.46a3.93,3.93,0,0,0,.18,2.46,2,2,0,0,0,1.55,1.18,2.26,2.26,0,0,0,2.34-.89l.77-4.05a2.26,2.26,0,0,0-1.84-1.65,2.05,2.05,0,0,0-1.89.53A4.38,4.38,0,0,0,62.06,239.47Z"/><path class="cls-29" d="M70,240.79a5.33,5.33,0,0,1,1-2.24,3.87,3.87,0,0,1,1.72-1.32,3.91,3.91,0,0,1,2.18-.17,3.78,3.78,0,0,1,2.68,1.8,4.82,4.82,0,0,1,.48,3.53l0,.11a5.29,5.29,0,0,1-.93,2.22A3.79,3.79,0,0,1,75.34,246a4,4,0,0,1-2.22.17,3.78,3.78,0,0,1-2.67-1.8,4.85,4.85,0,0,1-.48-3.52Zm1.48.47a3.81,3.81,0,0,0,.23,2.48A2.23,2.23,0,0,0,73.35,245a2.2,2.2,0,0,0,2-.55,4.24,4.24,0,0,0,1.16-2.4,3.89,3.89,0,0,0-.24-2.48,2.34,2.34,0,0,0-3.63-.71A4.18,4.18,0,0,0,71.47,241.26Z"/><path class="cls-29" d="M123.67,497.8l1-1.54.76,3.22-.7,1Zm11,5.42-2.86,4.18,2,2.73-.92,1.35-7.38-10.63.79-1.15,12.58,3-.92,1.35Zm-3.66,3,2.32-3.39-5.83-1.49Z"/><path class="cls-29" d="M140.63,495.9a1.13,1.13,0,0,0-1.06-.15,4.42,4.42,0,0,0-1.41,1,7.55,7.55,0,0,1-1.54,1.19,2.61,2.61,0,0,1-1.26.37,2,2,0,0,1-1.13-.38,2.33,2.33,0,0,1-1-1.82,3.67,3.67,0,0,1,.71-2.4,3.75,3.75,0,0,1,2-1.6,2.51,2.51,0,0,1,2.21.35l-.88,1.28a1.38,1.38,0,0,0-1.2-.18,2.39,2.39,0,0,0-1.57,2.15,1.12,1.12,0,0,0,.52.93.94.94,0,0,0,.94.11,5.37,5.37,0,0,0,1.34-1,8.5,8.5,0,0,1,1.56-1.19,2.71,2.71,0,0,1,1.31-.39,2.13,2.13,0,0,1,1.2.4,2.34,2.34,0,0,1,1.05,1.89,4,4,0,0,1-.81,2.47,4.48,4.48,0,0,1-1.39,1.36,3,3,0,0,1-1.61.47,2.57,2.57,0,0,1-1.49-.45l.86-1.26a1.65,1.65,0,0,0,1.36.18,2.45,2.45,0,0,0,1.24-1,2.51,2.51,0,0,0,.5-1.35A1.11,1.11,0,0,0,140.63,495.9Z"/><path class="cls-29" d="M145.25,485.59a5.38,5.38,0,0,1,2.2,2.64,3,3,0,0,1-.4,2.8,3.29,3.29,0,0,1-2.31,1.54l3.57,2.44-.86,1.27-10.27-7,.79-1.16.87.5a3.13,3.13,0,0,1,.51-2.8,3.06,3.06,0,0,1,2.45-1.43,5.39,5.39,0,0,1,3.33,1.14Zm-1,1.17a4,4,0,0,0-2.35-.82,2.07,2.07,0,0,0-1.72,1,2.24,2.24,0,0,0-.16,2.42l3.54,2.42a2.23,2.23,0,0,0,2.2-1,2.07,2.07,0,0,0,.27-1.95A4.38,4.38,0,0,0,144.24,486.76Z"/><path class="cls-29" d="M152.22,483.47a3.93,3.93,0,0,1-2.67,1.78,4.45,4.45,0,0,1-3.3-.87l-.23-.16a5.39,5.39,0,0,1-1.68-1.76,4,4,0,0,1-.55-2.11,3.63,3.63,0,0,1,.63-2,3.37,3.37,0,0,1,2.49-1.59,5,5,0,0,1,3.27,1.06l.53.36-3.43,5a3.15,3.15,0,0,0,2.21.57,2.42,2.42,0,0,0,1.74-1.09,2.74,2.74,0,0,0,.5-1.33,3.48,3.48,0,0,0-.17-1.31l1.13-.36A3.76,3.76,0,0,1,152.22,483.47Zm-6.76-4.38a2,2,0,0,0-.32,1.67,3.27,3.27,0,0,0,1.12,1.71l2.54-3.71-.09-.07a3,3,0,0,0-1.86-.5A1.94,1.94,0,0,0,145.46,479.09Z"/><path class="cls-29" d="M151.24,471.13a4.91,4.91,0,0,0-.48.59,2,2,0,0,0-.09,2.42l5.26,3.6-.86,1.27-7.42-5.07.84-1.23.87.56a2.4,2.4,0,0,1,.22-2.45,1.59,1.59,0,0,1,.48-.49Z"/><path class="cls-29" d="M154.2,472.16a5.35,5.35,0,0,1-1.66-1.77,3.84,3.84,0,0,1-.53-2.11,3.92,3.92,0,0,1,.72-2.07,3.78,3.78,0,0,1,2.72-1.73,4.88,4.88,0,0,1,3.43,1l.09.06a5.58,5.58,0,0,1,1.66,1.74,3.87,3.87,0,0,1,.53,2.1,4,4,0,0,1-.73,2.1,3.77,3.77,0,0,1-2.72,1.73,4.83,4.83,0,0,1-3.42-1Zm1-1.17a3.85,3.85,0,0,0,2.37.78,2.35,2.35,0,0,0,2.08-3.08,4.16,4.16,0,0,0-1.73-2,3.81,3.81,0,0,0-2.37-.78,2.27,2.27,0,0,0-1.81,1,2.2,2.2,0,0,0-.29,2A4.2,4.2,0,0,0,155.23,471Z"/><path class="cls-29" d="M70.18,429.64l-1.34.89-10.22-4.38,5.16,7.75-1.33.89-6.7-10.06,1.33-.89,10.26,4.41-5.18-7.79,1.32-.88Z"/><path class="cls-29" d="M75.52,426.28a4,4,0,0,1-3.14.65,4.42,4.42,0,0,1-2.73-2l-.16-.23a5.36,5.36,0,0,1-.89-2.27,3.93,3.93,0,0,1,.27-2.16,3.59,3.59,0,0,1,1.33-1.6,3.38,3.38,0,0,1,2.9-.55,5,5,0,0,1,2.64,2.22l.36.53L71,424.2a3.21,3.21,0,0,0,1.84,1.36,2.47,2.47,0,0,0,2-.37,2.64,2.64,0,0,0,1-1,3.41,3.41,0,0,0,.33-1.28l1.19.09A3.79,3.79,0,0,1,75.52,426.28Zm-4.62-6.6a2.06,2.06,0,0,0-.93,1.43,3.28,3.28,0,0,0,.41,2l3.74-2.49-.06-.1a3,3,0,0,0-1.53-1.16A1.94,1.94,0,0,0,70.9,419.68Z"/><path class="cls-29" d="M84,419.4a3.25,3.25,0,0,1-1.61,2.33,2.76,2.76,0,0,1-2.28.52,3.62,3.62,0,0,1-2-1.63l-3.24-4.86,1.28-.86,3.21,4.83q1.14,1.71,2.52.78a2.31,2.31,0,0,0,1.22-2.39l-3.62-5.43,1.28-.86,5,7.48-1.22.81Z"/><path class="cls-29" d="M83.17,407.58l1.21,1.81,1.39-.93.66,1-1.4.93,3.1,4.64a1.27,1.27,0,0,0,.63.55.94.94,0,0,0,.79-.2,4,4,0,0,0,.55-.49l.69,1a4.63,4.63,0,0,1-.89.79,1.93,1.93,0,0,1-1.64.35,2.74,2.74,0,0,1-1.42-1.19l-3.08-4.63-1.36.91-.66-1,1.36-.91-1.21-1.81Z"/><path class="cls-29" d="M91.65,406.2a4.38,4.38,0,0,0-.66.37,2,2,0,0,0-1,2.21l3.54,5.31-1.28.85-5-7.48,1.24-.83.6.85a2.41,2.41,0,0,1,1.11-2.19,1.78,1.78,0,0,1,.64-.28Z"/><path class="cls-29" d="M94,408.26a5.35,5.35,0,0,1-.89-2.26,3.83,3.83,0,0,1,.31-2.16,3.9,3.9,0,0,1,1.44-1.64,3.75,3.75,0,0,1,3.17-.59,4.86,4.86,0,0,1,2.82,2.18l.06.09a5.31,5.31,0,0,1,.88,2.24,3.78,3.78,0,0,1-.29,2.14,4,4,0,0,1-1.47,1.68,3.77,3.77,0,0,1-3.16.58,4.83,4.83,0,0,1-2.81-2.17Zm1.39-.7a3.78,3.78,0,0,0,1.9,1.61,2.36,2.36,0,0,0,3.09-2.07,4.24,4.24,0,0,0-.85-2.52,3.85,3.85,0,0,0-1.92-1.6,2.21,2.21,0,0,0-2,.27,2.18,2.18,0,0,0-1,1.77A4.15,4.15,0,0,0,95.41,407.56Z"/><path class="cls-32" d="M233.41,285.82a2.18,2.18,0,0,0-.84-1.85,11.33,11.33,0,0,0-3.06-1.36,22,22,0,0,1-3.5-1.41c-2.34-1.26-3.51-3-3.51-5.11a5,5,0,0,1,.94-3,6.19,6.19,0,0,1,2.7-2.05,10.24,10.24,0,0,1,4-.73,9.19,9.19,0,0,1,3.94.8,6.21,6.21,0,0,1,2.68,2.26,5.87,5.87,0,0,1,1,3.31h-4.25a2.78,2.78,0,0,0-.89-2.2,3.65,3.65,0,0,0-2.51-.79,3.91,3.91,0,0,0-2.42.66,2.07,2.07,0,0,0-.86,1.73,2,2,0,0,0,1,1.69,11.29,11.29,0,0,0,3,1.27,12.81,12.81,0,0,1,5.28,2.71,5.35,5.35,0,0,1,1.66,4,5,5,0,0,1-2,4.2,8.88,8.88,0,0,1-5.45,1.52,10.5,10.5,0,0,1-4.33-.87,6.85,6.85,0,0,1-3-2.39,6.07,6.07,0,0,1-1-3.51h4.26c0,2.28,1.36,3.41,4.08,3.41a4,4,0,0,0,2.37-.61A2,2,0,0,0,233.41,285.82Z"/><path class="cls-32" d="M252.19,287h-7.45l-1.41,4.25h-4.52l7.67-20.62h3.94l7.72,20.62h-4.52Zm-6.3-3.44H251l-2.59-7.72Z"/><path class="cls-32" d="M260.06,291.23V270.61h7.23a9.46,9.46,0,0,1,5.69,1.44,4.92,4.92,0,0,1,1.94,4.21,4.66,4.66,0,0,1-.78,2.67,4.49,4.49,0,0,1-2.17,1.69,4.39,4.39,0,0,1,2.5,1.6,4.74,4.74,0,0,1,.92,2.95,5.45,5.45,0,0,1-1.9,4.5,8.56,8.56,0,0,1-5.41,1.56Zm4.25-12h3.15c2.14,0,3.21-.89,3.21-2.57a2.36,2.36,0,0,0-.81-2,4.3,4.3,0,0,0-2.57-.62h-3Zm0,3v5.56H268a3.48,3.48,0,0,0,2.34-.71,2.45,2.45,0,0,0,.85-2c0-1.88-1-2.84-2.93-2.87Z"/><path class="cls-32" d="M295.51,281.39a12.37,12.37,0,0,1-1.08,5.33,8.09,8.09,0,0,1-3.08,3.54,8.45,8.45,0,0,1-4.59,1.25,8.61,8.61,0,0,1-4.58-1.23,8.16,8.16,0,0,1-3.11-3.52A12.07,12.07,0,0,1,278,281.5v-1a12.25,12.25,0,0,1,1.1-5.36,8.11,8.11,0,0,1,3.1-3.55,9.08,9.08,0,0,1,9.16,0,8.17,8.17,0,0,1,3.1,3.55,12.35,12.35,0,0,1,1.1,5.35Zm-4.31-.94a8.66,8.66,0,0,0-1.16-4.93,4.11,4.11,0,0,0-6.61,0,8.55,8.55,0,0,0-1.18,4.88v1a8.85,8.85,0,0,0,1.16,4.9,3.79,3.79,0,0,0,3.35,1.74,3.73,3.73,0,0,0,3.28-1.68,8.7,8.7,0,0,0,1.16-4.89Z"/><path class="cls-32" d="M306.23,283.68h-3.39v7.55h-4.25V270.61h7.67a8.63,8.63,0,0,1,5.63,1.63,5.61,5.61,0,0,1,2,4.6,6.33,6.33,0,0,1-.91,3.52,6.16,6.16,0,0,1-2.77,2.24l4.46,8.43v.2h-4.56Zm-3.39-3.44h3.43a3.49,3.49,0,0,0,2.48-.82,2.92,2.92,0,0,0,.87-2.24,3.1,3.1,0,0,0-.82-2.29,3.44,3.44,0,0,0-2.54-.84h-3.42Z"/><path class="cls-32" d="M329.51,282.29h-8.16v5.52h9.57v3.42H317.1V270.61h13.79v3.44h-9.54V279h8.16Z"/><path class="cls-32" d="M344.1,285.82a2.17,2.17,0,0,0-.85-1.85,11.09,11.09,0,0,0-3.05-1.36,22,22,0,0,1-3.5-1.41c-2.34-1.26-3.51-3-3.51-5.11a5,5,0,0,1,.94-3,6.19,6.19,0,0,1,2.7-2.05,10.24,10.24,0,0,1,4-.73,9.19,9.19,0,0,1,3.94.8,6.21,6.21,0,0,1,2.68,2.26,5.87,5.87,0,0,1,1,3.31h-4.25a2.78,2.78,0,0,0-.89-2.2,3.65,3.65,0,0,0-2.51-.79,3.89,3.89,0,0,0-2.42.66,2.07,2.07,0,0,0-.87,1.73,2,2,0,0,0,1,1.69,11.29,11.29,0,0,0,3,1.27,12.88,12.88,0,0,1,5.28,2.71,5.38,5.38,0,0,1,1.66,4,5,5,0,0,1-2,4.2,8.9,8.9,0,0,1-5.45,1.52,10.5,10.5,0,0,1-4.33-.87,6.79,6.79,0,0,1-3-2.39,6.07,6.07,0,0,1-1-3.51h4.26c0,2.28,1.36,3.41,4.08,3.41a3.94,3.94,0,0,0,2.36-.61A2,2,0,0,0,344.1,285.82Z"/></g></g></svg>