<?xml version="1.0" standalone="no"?>
<!DOCTYPE svg PUBLIC "-//W3C//DTD SVG 20010904//EN"
 "http://www.w3.org/TR/2001/REC-SVG-20010904/DTD/svg10.dtd">
<svg version="1.0" xmlns="http://www.w3.org/2000/svg"
 width="1830.000000pt" height="436.000000pt" viewBox="0 0 1830.000000 436.000000"
 preserveAspectRatio="xMidYMid meet">

<g transform="translate(0.000000,436.000000) scale(0.100000,-0.100000)"
fill="#000000" stroke="none">
<path d="M5650 4351 c-77 -24 -140 -73 -173 -136 -30 -57 -36 -208 -12 -272
26 -68 86 -128 153 -154 46 -18 78 -23 162 -23 94 0 111 3 165 28 74 34 100
57 133 121 23 43 26 62 27 145 0 85 -3 101 -29 153 -51 105 -140 148 -305 146
-53 0 -107 -4 -121 -8z"/>
<path d="M11881 4338 c-114 -43 -171 -137 -171 -279 0 -95 29 -167 86 -218 63
-56 128 -76 244 -76 116 0 181 20 244 76 57 51 86 123 86 218 0 143 -58 236
-174 280 -79 29 -237 29 -315 -1z"/>
<path d="M4810 4274 c-140 -18 -261 -33 -267 -34 -10 0 -13 -245 -13 -1190 l0
-1190 280 0 280 0 0 1225 c0 974 -3 1225 -12 1224 -7 -1 -128 -16 -268 -35z"/>
<path d="M7825 4274 c-143 -18 -263 -33 -267 -33 -5 -1 -8 -160 -8 -355 l0
-354 -72 19 c-648 168 -1176 -301 -1109 -985 15 -155 42 -253 102 -375 43 -87
65 -118 133 -186 64 -66 98 -91 166 -124 124 -60 190 -74 329 -69 166 6 270
49 397 161 l54 49 0 -81 0 -81 280 0 280 0 0 1225 c0 974 -3 1225 -12 1224 -7
-1 -130 -16 -273 -35z m-455 -1115 c36 -5 91 -22 123 -36 l57 -26 0 -363 0
-362 -39 -31 c-98 -78 -243 -103 -353 -61 -144 54 -228 210 -228 425 0 246
107 412 290 451 71 16 73 16 150 3z"/>
<path d="M14090 4275 c-140 -19 -261 -34 -267 -34 -10 -1 -13 -79 -13 -354 l0
-353 -71 18 c-273 69 -525 32 -735 -108 -148 -98 -264 -252 -322 -427 -41
-122 -52 -197 -52 -348 0 -153 19 -272 64 -389 46 -124 89 -193 176 -281 83
-83 191 -145 305 -174 77 -20 244 -19 319 0 84 22 185 78 255 142 l61 55 0
-81 0 -81 280 0 280 0 0 1225 c0 974 -3 1225 -12 1224 -7 -1 -128 -16 -268
-34z m-405 -1127 c21 -5 59 -19 82 -30 l43 -20 0 -363 0 -363 -32 -28 c-88
-74 -241 -105 -347 -69 -66 22 -152 100 -186 168 -52 108 -68 268 -40 402 53
248 239 366 480 303z"/>
<path d="M18015 4274 c-143 -18 -266 -33 -272 -33 -10 -1 -13 -79 -13 -355 l0
-353 -67 18 c-104 29 -256 41 -363 29 -374 -42 -647 -306 -731 -705 -19 -89
-16 -342 5 -439 63 -288 214 -488 441 -583 79 -34 163 -46 282 -41 155 6 262
50 383 156 l50 44 0 -76 0 -76 285 0 285 0 0 1225 c0 974 -3 1225 -12 1224 -7
-1 -130 -16 -273 -35z m-455 -1115 c36 -5 89 -21 118 -34 l52 -24 0 -369 0
-370 -53 -36 c-139 -96 -322 -88 -431 19 -85 83 -126 199 -126 360 0 201 70
348 199 419 79 43 140 52 241 35z"/>
<path d="M1112 4150 c-328 -46 -554 -206 -637 -451 -23 -68 -29 -107 -33 -204
-7 -200 38 -327 162 -451 123 -123 264 -192 581 -283 206 -60 264 -81 335
-123 105 -63 128 -170 55 -255 -69 -81 -209 -113 -406 -94 -197 20 -410 81
-583 168 -37 19 -71 32 -74 29 -5 -5 -111 -459 -112 -477 0 -19 232 -109 370
-144 550 -140 1052 -46 1281 238 98 122 142 255 142 432 1 257 -117 437 -371
564 -96 49 -151 68 -371 132 -305 89 -410 147 -427 234 -15 84 21 147 108 186
48 21 67 24 188 23 204 -1 407 -50 619 -150 52 -24 96 -43 97 -41 4 3 114 466
114 477 0 8 -110 60 -201 94 -84 31 -209 64 -319 83 -102 17 -430 25 -518 13z"/>
<path d="M3186 3580 c-364 -58 -624 -279 -716 -611 -44 -161 -46 -375 -4 -549
22 -90 103 -254 158 -318 127 -148 285 -237 501 -284 35 -7 122 -12 210 -11
128 0 165 4 250 27 482 127 734 567 628 1096 -64 320 -289 550 -616 631 -95
23 -318 33 -411 19z m288 -454 c131 -64 201 -214 200 -431 0 -225 -66 -364
-201 -428 -59 -27 -71 -29 -151 -25 -63 3 -98 10 -129 26 -128 66 -196 213
-196 422 -1 168 34 287 109 369 90 101 243 128 368 67z"/>
<path d="M9040 3583 c-74 -8 -209 -35 -292 -58 -111 -32 -328 -123 -328 -139
0 -13 110 -399 115 -405 2 -1 57 20 122 47 207 89 276 106 438 106 125 1 144
-1 180 -21 74 -39 107 -92 119 -190 5 -40 4 -53 -6 -53 -55 -1 -271 -23 -348
-36 -119 -20 -285 -74 -370 -121 -36 -20 -92 -64 -125 -97 -101 -102 -141
-214 -133 -372 3 -74 9 -101 36 -157 120 -257 457 -360 732 -225 42 21 93 60
151 115 l86 83 13 -30 c32 -77 140 -155 257 -185 60 -16 318 -21 340 -7 6 4
23 91 38 201 29 210 29 211 -26 211 -15 0 -37 9 -50 19 l-24 19 -6 389 c-5
354 -8 395 -27 466 -72 264 -245 398 -562 437 -80 9 -254 11 -330 3z m360
-1137 l0 -154 -37 -32 c-51 -45 -116 -72 -187 -77 -150 -12 -247 69 -233 194
11 104 108 164 326 203 59 10 112 19 119 19 9 1 12 -36 12 -153z"/>
<path d="M11225 3577 c-27 -8 -70 -24 -93 -36 -45 -23 -132 -103 -170 -156
l-21 -30 -1 111 0 110 -177 -22 c-98 -12 -224 -27 -280 -34 l-103 -12 0 -824
0 -824 280 0 280 0 0 486 0 486 45 63 c48 68 94 109 165 146 39 21 58 24 150
24 87 0 113 -4 154 -23 27 -12 50 -21 51 -20 2 2 28 113 59 248 64 281 68 256
-44 291 -82 26 -227 33 -295 16z"/>
<path d="M15272 3579 c-222 -26 -602 -160 -588 -207 3 -9 29 -100 57 -202 28
-102 53 -187 55 -189 2 -2 59 19 126 48 180 77 273 102 405 108 221 11 310
-45 329 -209 l7 -56 -79 -6 c-344 -27 -549 -81 -699 -184 -131 -90 -202 -214
-212 -372 -10 -150 38 -273 145 -371 154 -141 407 -179 601 -89 74 35 172 110
220 170 l33 42 20 -34 c55 -92 146 -156 260 -183 69 -16 314 -21 336 -6 9 5
23 76 40 200 28 210 28 211 -29 211 -15 0 -37 9 -50 19 l-24 19 -6 394 c-7
436 -10 462 -75 595 -66 132 -204 236 -369 277 -136 34 -338 44 -503 25z m388
-1133 l0 -154 -37 -32 c-64 -56 -117 -75 -214 -75 -77 0 -90 3 -128 28 -46 31
-80 91 -81 142 0 55 40 117 98 151 59 36 234 82 350 93 9 1 12 -36 12 -153z"/>
<path d="M5875 3555 c-99 -13 -224 -29 -277 -35 l-98 -12 0 -824 0 -824 280 0
280 0 0 860 c0 473 -1 859 -2 859 -2 -1 -84 -12 -183 -24z"/>
<path d="M12100 3550 c-118 -16 -243 -31 -277 -35 l-63 -7 0 -824 0 -824 280
0 280 0 0 860 c0 473 -1 859 -2 859 -2 -1 -100 -14 -218 -29z"/>
<path d="M16680 1383 c-4669 -45 -9478 -240 -13080 -529 -1457 -116 -3480
-321 -3500 -354 -12 -19 -103 -490 -97 -497 7 -6 24 -4 572 71 3495 480 8582
887 14140 1131 1332 58 3181 125 3468 125 l117 0 0 30 0 30 -697 -2 c-384 -2
-799 -4 -923 -5z"/>
</g>
</svg>
