<svg xmlns="http://www.w3.org/2000/svg" viewBox="0 0 107.97 25.85"><defs><style>.cls-1{fill:#ffffff;}.cls-2{fill:#ffca06;}</style></defs><g id="Layer_2" data-name="Layer 2"><g id="Layer_1-2" data-name="Layer 1"><path class="cls-1" d="M9.78,11c0-.89-.95-1.18-2.71-1.67-1.92-.53-4.24-1.41-4.24-4,0-2.45,1.8-4.08,5.07-4.08a10.12,10.12,0,0,1,4.94,1.16l-.66,2.77A9.74,9.74,0,0,0,7.92,4c-1.16,0-1.73.4-1.73,1.12S7.39,6.29,9,6.74c2,.54,4.14,1.47,4.14,4S11.17,15,7.71,15a10.89,10.89,0,0,1-5.09-1.2L3.25,11a9.8,9.8,0,0,0,4.52,1.23c1.18,0,2-.45,2-1.25"/><path class="cls-1" d="M19.82,7c-1.33,0-2,1.08-2,2.77s.72,2.72,2.05,2.72,2-1.06,2-2.74S21.15,7,19.82,7m0,8a4.89,4.89,0,0,1-5.21-5.19,5,5,0,0,1,5.34-5.26A4.9,4.9,0,0,1,25.1,9.75,5.05,5.05,0,0,1,19.78,15"/><polygon class="cls-1" points="26.88 14.7 26.88 0.74 30.13 0.34 30.13 14.7 26.88 14.7"/><path class="cls-1" d="M32.56,14.7V5.05l3.25-.41V14.7ZM34.19,3.48c-1.19,0-1.92-.61-1.92-1.73S33,0,34.19,0s1.92.61,1.92,1.75-.72,1.73-1.92,1.73"/><path class="cls-1" d="M43.11,7c-1.37,0-2.2,1.12-2.2,2.74s.85,2.66,2.05,2.66a2.2,2.2,0,0,0,1.65-.67V7.41A2.66,2.66,0,0,0,43.11,7M44.61.74l3.25-.4V14.7H44.61v-1A3.8,3.8,0,0,1,41.86,15c-2.42,0-4.2-2-4.2-5.09a5,5,0,0,1,4.92-5.32,6.31,6.31,0,0,1,2,.34Z"/><path class="cls-1" d="M55.48,10.32c-2,.24-2.75.62-2.75,1.48A1.1,1.1,0,0,0,54,12.86a2,2,0,0,0,1.52-.66Zm0,3.19A3.48,3.48,0,0,1,52.67,15a2.84,2.84,0,0,1-3-2.72c0-1.86,1.4-3.36,5.81-3.49V8.61c0-1-.53-1.49-1.73-1.49a8,8,0,0,0-3.34,1l-.67-2.39a9.84,9.84,0,0,1,4.51-1.16c3.4,0,4.52,1.54,4.48,4.29l0,2.83c0,.67.13.74.8.8L59.2,14.8c-2.14.28-3.19-.29-3.64-1.37Z"/><path class="cls-1" d="M64.5,14.69H61.25V5.05l3.25-.41V6.08a2.63,2.63,0,0,1,2.36-1.52,3.63,3.63,0,0,1,1.63.4l-.66,2.87a2.74,2.74,0,0,0-1.22-.29A2.39,2.39,0,0,0,64.5,9Z"/><path class="cls-1" d="M69.36,14.7V5.05l3.26-.41V14.7ZM71,3.48c-1.18,0-1.92-.61-1.92-1.73A1.68,1.68,0,0,1,71,0c1.2,0,1.92.61,1.92,1.75S72.19,3.48,71,3.48"/><path class="cls-1" d="M79.91,7c-1.37,0-2.19,1.12-2.19,2.74s.84,2.66,2,2.66a2.19,2.19,0,0,0,1.64-.67V7.41A2.64,2.64,0,0,0,79.91,7M81.41.74l3.25-.4V14.7H81.41v-1A3.8,3.8,0,0,1,78.67,15c-2.43,0-4.2-2-4.2-5.09a5,5,0,0,1,4.92-5.32,6.29,6.29,0,0,1,2,.34Z"/><path class="cls-1" d="M92.28,10.32c-2,.24-2.74.62-2.74,1.48a1.09,1.09,0,0,0,1.22,1.06,2,2,0,0,0,1.52-.66Zm0,3.19A3.48,3.48,0,0,1,89.48,15a2.84,2.84,0,0,1-3-2.72c0-1.86,1.39-3.36,5.8-3.49V8.61c0-1-.52-1.49-1.73-1.49a8,8,0,0,0-3.33,1l-.68-2.39a9.89,9.89,0,0,1,4.52-1.16c3.4,0,4.52,1.54,4.48,4.29l0,2.83c0,.67.13.74.81.8L96,14.8c-2.13.28-3.19-.29-3.63-1.37Z"/><path class="cls-1" d="M103,7c-1.37,0-2.19,1.12-2.19,2.74s.84,2.66,2,2.66a2.2,2.2,0,0,0,1.65-.67V7.41A2.66,2.66,0,0,0,103,7m1.5-6.25,3.25-.4V14.7h-3.25v-1A3.8,3.8,0,0,1,101.74,15c-2.42,0-4.2-2-4.2-5.09a5,5,0,0,1,4.92-5.32,6.31,6.31,0,0,1,2,.34Z"/><path class="cls-2" d="M107.78,17.3h-.37c-3,0-18.92,0-39.51.69-11.9.38-23.15.9-33.45,1.54-12.7.8-24,1.79-33.63,2.95l-.13,0,0,.13-.61,3,0,.25.26,0c10-1.44,21.86-2.75,35.27-3.9C46.27,21,58,20.19,70.44,19.51c21.17-1.17,37.19-1.57,37.35-1.57H108V17.3Z"/></g></g></svg>