<?xml version="1.0" standalone="no"?>
<!DOCTYPE svg PUBLIC "-//W3C//DTD SVG 20010904//EN"
 "http://www.w3.org/TR/2001/REC-SVG-20010904/DTD/svg10.dtd">
<svg version="1.0" xmlns="http://www.w3.org/2000/svg"
 width="512.000000pt" height="512.000000pt" viewBox="0 0 512.000000 512.000000"
 preserveAspectRatio="xMidYMid meet">

<g transform="translate(0.000000,512.000000) scale(0.100000,-0.100000)"
fill="#000000" stroke="none">
<path d="M2385 4709 c-509 -55 -976 -278 -1336 -638 -799 -799 -866 -2063
-156 -2946 148 -183 388 -390 594 -512 917 -539 2102 -344 2790 461 240 280
412 628 487 981 38 182 49 323 43 534 -10 331 -75 593 -222 896 -315 647 -930
1098 -1650 1210 -123 20 -429 27 -550 14z m506 -165 c555 -77 1057 -381 1386
-839 67 -93 155 -247 145 -256 -4 -3 -189 -91 -411 -195 -266 -123 -406 -184
-409 -176 -2 7 -29 47 -59 90 -135 190 -325 337 -538 417 -83 32 -224 64 -277
65 l-38 0 0 455 0 455 45 0 c24 0 95 -7 156 -16z m-86 -1063 c305 -63 569
-273 700 -555 223 -483 17 -1063 -460 -1296 -218 -107 -450 -132 -681 -74
-363 90 -649 391 -726 764 -26 124 -21 324 12 445 98 365 398 645 770 720 99
20 279 18 385 -4z"/>
</g>
</svg>
