<?xml version="1.0" standalone="no"?>
<!DOCTYPE svg PUBLIC "-//W3C//DTD SVG 20010904//EN"
 "http://www.w3.org/TR/2001/REC-SVG-20010904/DTD/svg10.dtd">
<svg version="1.0" xmlns="http://www.w3.org/2000/svg"
 width="512.000000pt" height="512.000000pt" viewBox="0 0 512.000000 512.000000"
 preserveAspectRatio="xMidYMid meet">

<g transform="translate(0.000000,512.000000) scale(0.100000,-0.100000)"
fill="#000000" stroke="none">
<path d="M3842 4899 c-46 -23 -72 -55 -90 -108 -9 -25 -12 -513 -12 -1882 0
-1333 -3 -1855 -11 -1872 -23 -50 -38 -52 -383 -52 -363 0 -365 1 -385 72 -7
25 -11 391 -11 1094 l0 1056 -23 44 c-16 29 -38 52 -68 69 -44 25 -45 25 -299
25 -254 0 -255 0 -299 -25 -30 -17 -52 -40 -68 -69 l-23 -44 0 -1056 c0 -703
-4 -1069 -11 -1094 -20 -71 -22 -72 -385 -72 -345 0 -360 2 -383 52 -8 16 -11
170 -11 491 0 310 -4 480 -11 507 -17 59 -73 110 -137 124 -69 14 -425 14
-494 0 -64 -14 -120 -65 -137 -124 -7 -27 -11 -197 -11 -507 0 -311 -4 -475
-11 -491 -21 -47 -41 -51 -254 -57 -211 -5 -235 -10 -278 -58 -40 -44 -46 -87
-46 -332 0 -294 9 -328 104 -371 38 -18 133 -19 2455 -19 2330 0 2416 1 2456
19 49 22 80 60 94 113 7 24 10 145 8 317 -3 278 -3 280 -27 304 l-23 25 -237
4 c-244 3 -268 7 -288 48 -5 8 -10 859 -13 1891 l-5 1875 -28 43 c-50 75 -73
81 -362 81 -234 0 -253 -1 -293 -21z"/>
</g>
</svg>
