<?xml version="1.0" standalone="no"?>
<!DOCTYPE svg PUBLIC "-//W3C//DTD SVG 20010904//EN"
 "http://www.w3.org/TR/2001/REC-SVG-20010904/DTD/svg10.dtd">
<svg version="1.0" xmlns="http://www.w3.org/2000/svg"
 width="512.000000pt" height="512.000000pt" viewBox="0 0 512.000000 512.000000"
 preserveAspectRatio="xMidYMid meet">

<g transform="translate(0.000000,512.000000) scale(0.100000,-0.100000)"
fill="#000000" stroke="none">
<path d="M3749 4097 c-83 -44 -127 -155 -96 -244 l14 -42 -339 -296 c-314
-276 -340 -296 -356 -281 -75 67 -211 57 -285 -21 l-28 -30 -309 126 c-265
108 -310 129 -310 147 0 11 -7 43 -15 70 -49 167 -268 200 -370 56 -27 -40
-30 -51 -30 -122 l0 -77 -333 -271 -333 -271 -39 20 c-88 46 -179 33 -246 -35
-93 -93 -80 -239 28 -312 54 -37 109 -48 163 -33 62 17 103 47 132 96 26 44
31 89 21 182 -3 21 44 63 326 293 181 147 333 268 337 268 4 0 11 -5 14 -10 4
-6 24 -19 45 -30 77 -40 187 -17 243 50 l28 33 307 -126 307 -125 7 -52 c9
-60 26 -95 65 -134 81 -82 220 -74 300 17 38 44 58 121 45 171 l-10 36 316
276 c174 153 329 288 343 301 l26 24 44 -21 c87 -39 187 -17 247 55 86 105 51
255 -75 319 -48 24 -131 21 -184 -7z m180 -82 c69 -59 59 -170 -20 -211 -107
-55 -229 60 -174 166 38 73 134 95 194 45z m-2067 -425 c73 -21 113 -104 84
-173 -29 -71 -132 -101 -190 -56 -81 64 -72 178 19 220 47 22 41 21 87 9z
m1049 -413 c73 -49 72 -155 0 -204 -115 -78 -255 55 -178 168 42 62 116 78
178 36z m-2034 -384 c44 -20 78 -88 68 -134 -16 -71 -94 -121 -158 -100 -45
15 -87 60 -93 102 -12 72 50 149 119 149 16 0 45 -8 64 -17z"/>
<path d="M3570 3368 c-18 -13 -41 -39 -51 -58 -18 -33 -19 -79 -19 -957 l0
-923 -155 0 -154 0 -3 508 c-3 471 -4 509 -21 537 -42 69 -46 70 -317 73 -284
3 -299 0 -337 -78 -23 -44 -23 -46 -23 -542 l0 -498 -155 0 -154 0 -3 703 c-3
685 -3 703 -23 737 -12 19 -36 43 -55 55 -33 19 -52 20 -270 20 -217 0 -238
-2 -269 -20 -19 -11 -43 -33 -55 -48 -21 -28 -21 -34 -24 -738 l-2 -709 -155
0 -154 0 -3 314 c-3 300 -4 316 -24 342 -51 68 -52 69 -310 72 -223 3 -238 2
-279 -18 -32 -16 -49 -33 -64 -64 -20 -40 -21 -60 -21 -344 l0 -302 -94 0
c-52 0 -101 -3 -110 -6 -19 -7 -21 -45 -4 -62 9 -9 489 -12 2099 -12 1884 0
2089 2 2103 16 19 18 19 20 6 45 -10 17 -22 19 -140 19 l-130 0 -2 928 c-3
1032 1 966 -71 1011 -32 20 -48 21 -279 21 -238 0 -246 -1 -278 -22z m529 -84
c21 -27 21 -29 19 -938 l-3 -911 -267 -3 -268 -2 0 918 c0 910 0 918 20 940
20 21 27 22 250 22 l229 0 20 -26z m-2045 -425 c13 -7 30 -23 35 -38 8 -18 10
-236 9 -706 l-3 -680 -267 -3 -268 -2 0 693 c0 731 -1 710 45 735 28 16 416
16 449 1z m1035 -415 c21 -26 21 -36 21 -520 l0 -494 -270 0 -270 0 0 500 c0
487 1 501 20 520 19 19 33 20 249 20 l230 0 20 -26z m-2024 -389 l25 -24 0
-301 0 -300 -270 0 -270 0 0 302 c0 296 0 302 22 325 21 23 24 23 245 23 l224
0 24 -25z"/>
</g>
</svg>
